<svg width="43" height="36" viewBox="0 0 43 36" fill="none" xmlns="http://www.w3.org/2000/svg">
<g clip-path="url(#clip0_1047_1114)">
<path d="M13.0374 35.7455C12.1177 35.298 11.9755 34.9952 12.2693 34.1132C13.0814 31.6741 13.892 29.2349 14.7009 26.7954C14.7267 26.7174 14.7595 26.6414 14.7955 26.5484H28.4234C28.4734 26.6794 28.5344 26.819 28.5797 26.9612C29.3715 29.3448 30.1622 31.7283 30.9519 34.1119C31.2442 34.9939 31.1027 35.2966 30.1846 35.7455H13.0374Z" fill="#BE2B8C"/>
<path d="M42.9226 32.7436C42.5913 33.3484 42.0193 33.53 41.2458 33.5214C38.7774 33.4946 36.3083 33.5116 33.8392 33.5116H33.3508C32.5788 31.1892 31.8099 28.878 31.0286 26.53H31.5247C34.6323 26.53 37.739 26.5471 40.8457 26.5202C41.8787 26.511 42.5874 26.8079 42.9226 27.6467V32.7436Z" fill="#BE2B8C"/>
<path d="M15.3686 2.11073H10.3873V24.4139H7.88695V21.6676H4.56377V24.4067H2.04932V24.047C2.04932 16.4498 2.04932 8.85269 2.04932 1.25556C2.04932 0.391871 2.51814 0 3.54643 0H39.67C40.7054 0 41.175 0.38925 41.175 1.24966V24.4106H38.6941V21.6708H35.3584V24.4159H32.8705V2.12187H27.8565C27.8565 2.77324 27.8494 3.42068 27.8651 4.06811C27.8651 4.14937 27.9713 4.25029 28.0604 4.30599C28.7808 4.76011 29.1106 5.36758 29.1043 6.11462C29.1043 6.52156 29.1106 6.92916 29.1043 7.3361C29.0942 7.81906 28.7722 8.0956 28.1987 8.09953C27.1308 8.10695 26.063 8.10695 24.9951 8.09953C24.5145 8.09953 24.1473 7.85707 24.1301 7.49075C24.0902 6.89843 24.0965 6.30456 24.1489 5.71292C24.2114 5.13494 24.5786 4.66837 25.142 4.31582C25.2389 4.25487 25.3475 4.14216 25.3514 4.05042C25.3709 3.51569 25.3608 2.98031 25.3608 2.44493V2.11728H17.869C17.869 2.77586 17.8612 3.44492 17.8799 4.11267C17.8799 4.18803 18.0213 4.27126 18.1143 4.3322C18.4216 4.52374 18.6718 4.77243 18.8452 5.05873C19.0186 5.34503 19.1105 5.66114 19.1137 5.98225C19.127 6.43572 19.1246 6.88984 19.1137 7.34331C19.1028 7.82299 18.7769 8.09297 18.1956 8.09625C17.1413 8.1028 16.0872 8.1028 15.0334 8.09625C14.4583 8.09232 14.1325 7.81709 14.1231 7.33676C14.1153 6.88329 14.1114 6.42916 14.1231 5.9757C14.1442 5.29549 14.4895 4.75225 15.1209 4.32172C15.2559 4.22047 15.3397 4.07985 15.3553 3.92853C15.3826 3.33876 15.3686 2.74506 15.3686 2.11073ZM7.84632 4.87413V2.12187H4.56924V4.87413H7.84632ZM38.648 4.87413V2.12187H35.3701V4.87413H38.648ZM7.86194 7.0078H4.58018V9.76006H7.85804L7.86194 7.0078ZM38.6543 9.76006V7.0078H35.3662V9.75679L38.6543 9.76006ZM7.85179 14.6486V11.8963H4.57002V14.6486H7.85179ZM35.3662 14.6381H38.648V11.8859H35.3662V14.6381ZM4.56455 19.5234H7.84632V16.7744H4.56455V19.5234ZM35.3787 16.7711V19.5326H38.6535V16.7698L35.3787 16.7711Z" fill="#BE2B8C"/>
<path d="M12.8896 24.4107V17.1231H30.3197V24.4107H12.8896Z" fill="#BE2B8C"/>
<path d="M9.87308 33.5109H8.64945C6.347 33.5109 4.0443 33.5109 1.74134 33.5109C0.792754 33.5109 0.302051 33.1013 0.30127 32.3117C0.30127 30.8923 0.30127 29.4725 0.30127 28.0522C0.30127 27.1027 0.983408 26.53 2.11171 26.5293C5.33044 26.5293 8.54891 26.5293 11.7671 26.5293H12.1938C11.4147 28.8727 10.6466 31.1833 9.87308 33.5109Z" fill="#BE2B8C"/>
</g>
<defs>
<clipPath id="clip0_1047_1114">
<rect width="42.6231" height="35.7454" fill="white" transform="translate(0.299805)"/>
</clipPath>
</defs>
</svg>
