<svg width="48" height="60" viewBox="0 0 48 60" fill="none" xmlns="http://www.w3.org/2000/svg">
<g clip-path="url(#clip0_1047_1123)" filter="url(#filter0_d_1047_1123)">
<path d="M27.5681 40.1323C27.5681 37.7713 27.5681 35.4105 27.5681 33.0498C27.5681 29.6376 27.5681 26.2254 27.5681 22.8132C27.5681 22.648 27.6071 22.5437 27.7642 22.4591C27.9107 22.3732 28.0443 22.2676 28.1611 22.1454C31.0288 19.3349 33.8952 16.5228 36.7604 13.7092C37.467 13.0152 37.5248 12.107 36.9175 11.3933C36.3774 10.7589 35.3464 10.6453 34.6779 11.1516C34.5545 11.247 34.4372 11.3499 34.3269 11.4597C31.6629 14.0723 29.0006 16.6868 26.3399 19.3031C26.1845 19.4558 26.0897 19.4521 25.9167 19.3325C24.4986 18.3498 23.0153 18.2628 21.4877 19.0687C21.3113 19.1621 21.2256 19.1142 21.1067 18.9966C18.5425 16.4761 15.9768 13.9567 13.4096 11.4384C13.0094 11.0445 12.5583 10.7911 11.9743 10.8395C11.3181 10.8943 10.8424 11.2229 10.5734 11.8061C10.3134 12.37 10.3782 12.9218 10.7481 13.4232C10.8871 13.6121 11.0623 13.7768 11.2308 13.9424C13.9221 16.5853 16.6151 19.2263 19.3097 21.8655C19.364 21.914 19.4064 21.974 19.4338 22.041C19.4611 22.108 19.4727 22.1802 19.4675 22.2521C19.4515 22.9159 19.4495 23.5812 19.4491 24.2438C19.4474 26.6515 19.4474 29.0593 19.4491 31.4673C19.4491 36.7177 19.4474 41.9684 19.4442 47.2193C19.4442 47.7787 19.5885 48.2697 20.0388 48.6342C20.5342 49.037 21.0968 49.1546 21.7034 48.9198C22.3099 48.6849 22.6683 48.2351 22.7668 47.5983C22.7855 47.4514 22.793 47.3033 22.7893 47.1553C22.7893 43.4662 22.7893 39.7773 22.7893 36.0886C22.7893 35.8046 22.7893 35.8123 23.0842 35.8236C23.3626 35.834 23.6423 35.8344 23.9208 35.8236C24.2185 35.8123 24.2185 35.8046 24.2185 36.091C24.2185 39.7932 24.2185 43.4955 24.2185 47.198C24.2185 47.6744 24.3112 48.1183 24.6565 48.4791C25.0924 48.9339 25.6333 49.1389 26.2501 48.9878C26.9665 48.8126 27.4221 48.3527 27.5374 47.614C27.5595 47.4613 27.5698 47.3071 27.5681 47.1528C27.5695 44.8136 27.5695 42.4734 27.5681 40.1323Z" fill="#8A2E86"/>
<path d="M19.6727 14.0616C19.7055 16.2095 21.4898 17.9281 23.6584 17.9031C25.8159 17.8765 27.6015 16.0854 27.5699 13.9991C27.5375 11.8565 25.6765 10.0686 23.4513 10.1576C21.4115 10.239 19.6387 11.96 19.6727 14.0616Z" fill="#8A2E86"/>
</g>
<defs>
<filter id="filter0_d_1047_1123" x="0.415039" y="0.154388" width="46.9199" height="58.8842" filterUnits="userSpaceOnUse" color-interpolation-filters="sRGB">
<feFlood flood-opacity="0" result="BackgroundImageFix"/>
<feColorMatrix in="SourceAlpha" type="matrix" values="0 0 0 0 0 0 0 0 0 0 0 0 0 0 0 0 0 0 127 0" result="hardAlpha"/>
<feOffset/>
<feGaussianBlur stdDeviation="5"/>
<feComposite in2="hardAlpha" operator="out"/>
<feColorMatrix type="matrix" values="0 0 0 0 1 0 0 0 0 0 0 0 0 0 0.52549 0 0 0 0.35 0"/>
<feBlend mode="normal" in2="BackgroundImageFix" result="effect1_dropShadow_1047_1123"/>
<feBlend mode="normal" in="SourceGraphic" in2="effect1_dropShadow_1047_1123" result="shape"/>
</filter>
<clipPath id="clip0_1047_1123">
<rect width="26.9198" height="38.8842" fill="white" transform="matrix(-1 0 0 1 37.335 10.1544)"/>
</clipPath>
</defs>
</svg>
