<?xml version="1.0" encoding="UTF-8"?>
<svg id="Layer_2" data-name="Layer 2" xmlns="http://www.w3.org/2000/svg" xmlns:xlink="http://www.w3.org/1999/xlink" viewBox="0 0 995.69 105.57">
  <defs>
    <style>
      .cls-1 {
        clip-path: url(#clippath);
      }

      .cls-2 {
        fill: none;
      }

      .cls-2, .cls-3 {
        stroke-width: 0px;
      }

      .cls-3 {
        fill: #fff;
      }
    </style>
    <clipPath id="clippath">
      <rect class="cls-2" width="995.69" height="105.57"/>
    </clipPath>
  </defs>
  <g id="Layer_1-2" data-name="Layer 1">
    <polygon class="cls-3" points="990.51 42.65 991.38 42.66 991.4 38.82 992.71 42.67 993.47 42.67 994.81 38.84 994.79 42.68 995.66 42.69 995.69 37.92 994.34 37.92 993.09 41.32 991.9 37.9 990.54 37.89 990.51 42.65"/>
    <polygon class="cls-3" points="987.2 42.63 988.14 42.64 988.17 38.67 989.72 38.68 989.73 37.89 985.67 37.86 985.67 38.66 987.22 38.67 987.2 42.63"/>
    <g class="cls-1">
      <path class="cls-3" d="m988.22,46.26l-52.96-.68c-1.39-.02-2.75.38-3.92,1.15l-8.27,5.48c-17.22,11.56-31.02,12.91-43.99,8.42l3.09-12.5h-42.84l-5.38,21.71h10.16c-.7,2.39-1.41,4.42-2.12,6.06-.98,2.25-1.99,4.01-3.01,5.23-.9,1.07-1.79,1.79-2.66,2.14-.98.39-2.05.58-3.27.58-1.47,0-2.55-.26-3.11-.76-.17-.15-.74-.81-.78-3.07-.05-2.2.32-5.29,1.11-9.18.81-4.02,2-9.18,3.54-15.35,1.54-6.15,2.91-11.33,4.09-15.37,1.13-3.88,2.33-6.98,3.57-9.21,1.1-1.98,2.26-3.34,3.44-4.03,1.18-.69,2.72-1.05,4.6-1.05,2.65,0,2.81,1,2.93,1.77.16.95.15,2.22-.02,3.76-.2,1.72-.55,3.72-1.04,5.93l-.73,3.29h33.46l.5-2.07c1.43-5.95,1.75-11.14.96-15.42-.82-4.46-2.69-8.17-5.55-11.05-2.8-2.82-6.47-4.89-10.9-6.13-4.21-1.18-9.08-1.78-14.47-1.78-8.86,0-16.49,1.12-22.66,3.33-6.25,2.24-11.61,5.57-15.91,9.89-4.26,4.28-7.8,9.61-10.5,15.84-2.64,6.07-4.94,13.14-6.83,21.02-1.87,7.72-3.3,14.67-4.24,20.67-.99,6.31-.86,11.77.38,16.22,1.33,4.79,4.21,8.48,8.57,10.95,4.18,2.37,10.05,3.52,17.95,3.52,2.57,0,5.19-.16,7.78-.47,2.64-.32,5.23-.88,7.71-1.66,2.55-.8,4.96-1.93,7.17-3.35.03-.02.06-.04.09-.06l-.64,3.72h24.89l6.96-28.12c16.96,5.2,32.96,3.52,47.75-5.08l4.71-2.74,24.07,35.94h21.6l-28.35-42.23,33.27.52-5.22,30.72c-.37,2.18.15,4.35,1.46,6.13,1.31,1.78,3.24,2.91,5.55,3.21,3.72.49,7.13-2.03,7.75-5.74l7.04-42.02c.34-2-.22-4.04-1.52-5.6-1.3-1.56-3.21-2.47-5.24-2.49"/>
      <path class="cls-3" d="m972.59,33.66c-15.53,3.83-17.58-25.17-20.8-29.34-.58-.76-1.2-1.55-1.91-2.18-3.8-3.36-9.59-2.7-12.36,1.52-2.05,3.12-1.78,7.53,1.42,13.67,3.69,7.07,19.22,26.9,33.64,16.33"/>
      <path class="cls-3" d="m921.27,44.01c11.42-2.89,17.46-12.89,14.74-24.37-2.51-10.57-13.24-16.59-24.32-14.22-9.31,1.98-17.41,12.35-14.57,23.6,3.46,13.7,15.57,17.75,24.16,14.99"/>
      <path class="cls-3" d="m683.74,5.94l-20.23,81.33-3.55-81.33h-40.54l-39.36,72.74h-32.66l18.17-72.74h-34.46l-24.33,97.81h96.79l6.83-16.18h18.33l-.93,16.18h66.08l24.33-97.81h-34.46Zm-53.49,58.11h-9.39l10.49-23.24-1.1,23.24Z"/>
      <polygon class="cls-3" points="774.19 5.94 763.2 49.74 759.86 5.94 722.93 5.94 698.6 103.76 731.2 103.76 742.2 59.36 746.18 103.76 782.45 103.76 806.78 5.94 774.19 5.94"/>
      <path class="cls-3" d="m458.36,39.85h-12.13l8.54-33.91h-34.47l-21.15,85.04-3.72-85.04h-40.54l-45.34,83.78,20.84-83.78h-32.59l-10.99,43.8-3.34-43.8h-31.09l7.18,78.68,6.25-25.14,3.98,44.27h69.24l6.83-16.18h18.33l-.93,16.18h67.16l9.47-38.05h12.13l-9.47,38.05h34.46l24.33-97.81h-34.45l-8.54,33.91Zm-92.63,24.2h-9.39l10.49-23.24-1.1,23.24Z"/>
      <path class="cls-3" d="m235.56,49.74l-3.34-43.8h-36.92l-21.15,85.04-3.72-85.04h-40.54l-45.34,83.78L105.38,5.94h-34.45l-8.54,33.91h-12.13L58.8,5.94H24.33L0,103.76h34.46l9.47-38.05h12.13l-9.47,38.05h67.44l6.83-16.18h18.33l-.93,16.18h65.3l11-44.4,3.99,44.4h35.55l-8.56-93.74-9.97,39.72Zm-94.84,14.31h-9.39l10.49-23.24-1.1,23.24Z"/>
    </g>
  </g>
</svg>