<?xml version="1.0" encoding="utf-8"?>
<!-- Generator: Adobe Illustrator 27.9.0, SVG Export Plug-In . SVG Version: 6.00 Build 0)  -->
<svg version="1.1" id="Layer_1" xmlns="http://www.w3.org/2000/svg" xmlns:xlink="http://www.w3.org/1999/xlink" x="0px" y="0px"
	 viewBox="0 0 73 124" style="enable-background:new 0 0 73 124;" xml:space="preserve">
<style type="text/css">
	.st0{clip-path:url(#SVGID_00000013892565121422687020000018228836959009601455_);}
	.st1{fill:#FFFFFF;}
	.st2{fill:none;stroke:#000000;stroke-width:2;stroke-miterlimit:10;}
	.st3{fill:url(#SVGID_00000009548322270709350780000000507867233180056744_);}
	.st4{fill:url(#SVGID_00000012473375673357410070000007568460427046887100_);}
	.st5{fill:none;stroke:#FFFFFF;stroke-width:2;stroke-miterlimit:10;}
</style>
<g>
	<defs>
		<rect id="SVGID_1_" x="-22" width="95" height="124"/>
	</defs>
	<clipPath id="SVGID_00000147899364297850938590000018419099729891530136_">
		<use xlink:href="#SVGID_1_"  style="overflow:visible;"/>
	</clipPath>
	<g style="clip-path:url(#SVGID_00000147899364297850938590000018419099729891530136_);">
		<path class="st1" d="M74.9,67.7c0,0,6.1,0.7,8.3,2.5c2.2,1.8,11.9,33.1,11.9,33.1l-12.6,7.9c0,0-2.5,1.8-7.2,1.8
			C70.6,113,74.9,67.7,74.9,67.7"/>
		<path class="st2" d="M74.9,67.7c0,0,6.1,0.7,8.3,2.5c2.2,1.8,11.9,33.1,11.9,33.1l-12.6,7.9c0,0-2.5,1.8-7.2,1.8
			C70.6,113,74.9,67.7,74.9,67.7L74.9,67.7z"/>
		<path class="st1" d="M45.6,70.8c0,0,5.9-4.1,8.1-2.3c2.2,1.8,11.9,34.9,11.9,34.9l-13.3,9.9c0,0-5.6-1.8-6.8-2.3
			C41.1,109,45.6,70.8,45.6,70.8"/>
		<path class="st2" d="M45.6,70.8c0,0,5.9-4.1,8.1-2.3c2.2,1.8,11.9,34.9,11.9,34.9l-13.3,9.9c0,0-5.6-1.8-6.8-2.3
			C41.1,109,45.6,70.8,45.6,70.8L45.6,70.8z"/>
		
			<linearGradient id="SVGID_00000100367993263222603650000013611914014077527461_" gradientUnits="userSpaceOnUse" x1="38.3797" y1="53.6823" x2="38.3797" y2="12.7328" gradientTransform="matrix(1 0 0 -1 0 123.8898)">
			<stop  offset="0" style="stop-color:#FF0086"/>
			<stop  offset="1" style="stop-color:#DEA05B"/>
		</linearGradient>
		<path style="fill:url(#SVGID_00000100367993263222603650000013611914014077527461_);" d="M45.1,111.2c0,0,15-18.4,0.8-40.9
			C45.9,70.2-1.1,89,45.1,111.2z"/>
		
			<linearGradient id="SVGID_00000170277446774995743040000002513635462351263166_" gradientUnits="userSpaceOnUse" x1="65.5917" y1="71.4894" x2="65.5917" y2="0.2792" gradientTransform="matrix(1 0 0 -1 0 123.8898)">
			<stop  offset="0" style="stop-color:#FF0086"/>
			<stop  offset="1" style="stop-color:#DEA05B"/>
		</linearGradient>
		<path style="fill:url(#SVGID_00000170277446774995743040000002513635462351263166_);" d="M50.2,68.3c0,0,3-14.3,17.9-15.8
			C83,51,76.2,65.9,75.2,67.7c0,0,13,20.8-0.1,46.1c0,0,1.1,10.1-5,9.9s-9.5-0.9-11.9-3c-2.4-2.1-5.6-6.8-7.4-7.7
			C51,113,68.2,92,50.2,68.3"/>
		<path class="st1" d="M33.5,88.5c0-2.1,1.7-3.7,3.8-3.7c2.1,0,3.8,1.7,3.8,3.7c0,2.1-1.7,3.8-3.8,3.8
			C35.2,92.3,33.5,90.6,33.5,88.5z"/>
		<path class="st5" d="M95.1,103.3l-12.6,7.9c0,0-2.4,1.7-7,1.8c11.9-23.8,0.8-43.6-0.2-45.2c1.4,0.2,6.1,0.9,7.9,2.5
			C85.4,72,95.1,103.3,95.1,103.3z"/>
		<path class="st5" d="M95.1,103.3l-12.6,7.9c0,0-2.4,1.7-7,1.8c11.9-23.8,0.8-43.6-0.2-45.2c1.4,0.2,6.1,0.9,7.9,2.5
			C85.4,72,95.1,103.3,95.1,103.3z"/>
		<path class="st5" d="M51.1,112.8c-1.7-0.6-4.8-1.6-5.7-2c0,0,0,0,0,0c1.9-2.5,13.6-19.7,0.7-40.4c0.8-0.5,2.6-1.6,4.3-2.1
			C67.4,90.9,52.5,111,51.1,112.8z"/>
		<path class="st5" d="M51.1,112.8c-1.7-0.6-4.8-1.6-5.7-2c0,0,0,0,0,0c1.9-2.5,13.6-19.7,0.7-40.4c0.8-0.5,2.6-1.6,4.3-2.1
			C67.4,90.9,52.5,111,51.1,112.8z"/>
		<path class="st5" d="M46,70.5c-0.1-0.1-0.1-0.2-0.2-0.3c0,0-47,18.7-0.8,40.9c0,0,0.1-0.1,0.2-0.3C47.2,108.3,58.9,91.1,46,70.5z
			 M37.3,92.3c-2.1,0-3.8-1.7-3.8-3.7s1.7-3.8,3.8-3.8c2.1,0,3.8,1.7,3.8,3.8S39.4,92.3,37.3,92.3z"/>
		<path class="st5" d="M41.1,88.5c0,2.1-1.7,3.7-3.8,3.7c-2.1,0-3.8-1.7-3.8-3.7c0-2.1,1.7-3.8,3.8-3.8
			C39.4,84.8,41.1,86.4,41.1,88.5z"/>
		<path class="st5" d="M75.5,113c-0.1,0.2-0.2,0.5-0.4,0.7c0,0,1.1,10.1-5,9.9c-6-0.2-9.5-0.9-11.9-3c-2.4-2.1-5.6-6.8-7.4-7.7
			c0,0,0,0,0.1-0.1c1.4-1.8,16.3-21.9-0.8-44.5c0,0,0-0.1-0.1-0.1c0,0,3-14.2,17.9-15.7C83,51,76.2,65.9,75.2,67.7c0,0,0,0,0.1,0.1
			C76.3,69.4,87.4,89.2,75.5,113z"/>
		<path class="st5" d="M41.1,88.5c0,2.1-1.7,3.7-3.8,3.7c-2.1,0-3.8-1.7-3.8-3.7c0-2.1,1.7-3.8,3.8-3.8
			C39.4,84.8,41.1,86.4,41.1,88.5z"/>
		<path class="st5" d="M14.8,84.8c0-1.8,1.4-3.2,3.2-3.2s3.2,1.4,3.2,3.2S19.7,88,17.9,88C16.2,88,14.8,86.6,14.8,84.8z"/>
		<path class="st5" d="M11.6,73.6c0-2.3,1.9-4.1,4.1-4.1s4.1,1.9,4.1,4.1s-1.9,4.1-4.1,4.1S11.6,75.8,11.6,73.6z"/>
		<path class="st5" d="M17.4,63.3c0-2.7,2.2-4.9,4.9-4.9s4.9,2.2,4.9,4.9c0,2.7-2.2,4.9-4.9,4.9S17.4,66,17.4,63.3z"/>
		<path class="st5" d="M7.6,50.5c0-3.1,2.5-5.7,5.7-5.7c3.1,0,5.7,2.5,5.7,5.7c0,3.1-2.5,5.7-5.7,5.7C10.1,56.2,7.6,53.6,7.6,50.5z"
			/>
		<path class="st5" d="M3.7,22.6C3.7,12.4,12.1,4,22.3,4C32.6,4,41,12.4,41,22.6s-8.4,18.6-18.7,18.6C12.1,41.3,3.7,32.9,3.7,22.6z"
			/>
		<path class="st1" d="M35.9,24h-2.7v2.7h-2.6V24h-2.7v-2.5h2.7v-2.7h2.6v2.7h2.7V24z"/>
		<g>
			<path class="st1" d="M13.2,24.8h4.2V27H9.6v-1.3c0-3.5,4.9-3.2,4.9-4.3c0-0.3-0.2-0.5-0.8-0.5c-0.3,0-1.1,0-1.1,0.8h-3
				c0-2.1,1.3-3.2,3.9-3.2c2.4,0,3.9,0.9,3.9,2.8C17.5,24,14.2,23.7,13.2,24.8z"/>
			<path class="st1" d="M26.2,24.8V27H19v-2.3h2.3v-3.2c-0.6,0.5-1.4,0.5-2.1,0.5v-2.5c0.7,0,1.4-0.2,2.1-0.9h3v6.1H26.2z"/>
		</g>
	</g>
</g>
</svg>
