<svg width="27" height="27" viewBox="0 0 27 27" fill="none" xmlns="http://www.w3.org/2000/svg">
<g clip-path="url(#clip0_1047_1740)">
<path fill-rule="evenodd" clip-rule="evenodd" d="M24.88 13.3915C24.88 16.368 23.6976 19.2226 21.5929 21.3273C19.4882 23.4319 16.6337 24.6143 13.6572 24.6143C10.6807 24.6143 7.82614 23.4319 5.72145 21.3273C3.61677 19.2226 2.43436 16.368 2.43436 13.3915C2.43436 10.415 3.61677 7.56047 5.72145 5.45578C7.82614 3.35109 10.6807 2.16869 13.6572 2.16869C16.6337 2.16869 19.4882 3.35109 21.5929 5.45578C23.6976 7.56047 24.88 10.415 24.88 13.3915ZM0.831102 13.3915C0.831102 16.7932 2.18242 20.0556 4.58778 22.4609C6.99313 24.8663 10.2555 26.2176 13.6572 26.2176C17.0589 26.2176 20.3212 24.8663 22.7266 22.4609C25.132 20.0556 26.4833 16.7932 26.4833 13.3915C26.4833 9.98983 25.132 6.72746 22.7266 4.3221C20.3212 1.91675 17.0589 0.56543 13.6572 0.56543C10.2555 0.56543 6.99313 1.91675 4.58778 4.3221C2.18242 6.72746 0.831102 9.98983 0.831102 13.3915ZM12.8556 7.7801C12.8556 7.5675 12.94 7.3636 13.0904 7.21327C13.2407 7.06293 13.4446 6.97847 13.6572 6.97847C13.8698 6.97847 14.0737 7.06293 14.224 7.21327C14.3744 7.3636 14.4588 7.5675 14.4588 7.7801V17.0678L17.8994 13.6256C18.0499 13.4751 18.2541 13.3905 18.467 13.3905C18.6798 13.3905 18.884 13.4751 19.0345 13.6256C19.1851 13.7761 19.2696 13.9803 19.2696 14.1931C19.2696 14.406 19.1851 14.6102 19.0345 14.7607L14.2247 19.5705C14.1503 19.6451 14.0618 19.7044 13.9644 19.7448C13.867 19.7852 13.7626 19.806 13.6572 19.806C13.5517 19.806 13.4473 19.7852 13.35 19.7448C13.2526 19.7044 13.1641 19.6451 13.0896 19.5705L8.27985 14.7607C8.12933 14.6102 8.04476 14.406 8.04476 14.1931C8.04476 13.9803 8.12933 13.7761 8.27985 13.6256C8.43038 13.4751 8.63453 13.3905 8.84741 13.3905C9.06028 13.3905 9.26444 13.4751 9.41496 13.6256L12.8556 17.0678V7.7801Z" fill="white"/>
</g>
<defs>
<clipPath id="clip0_1047_1740">
<rect width="25.6522" height="25.6522" fill="white" transform="matrix(0 1 1 0 0.830933 0.56543)"/>
</clipPath>
</defs>
</svg>
