<svg width="15" height="15" viewBox="0 0 15 15" fill="none" xmlns="http://www.w3.org/2000/svg">
<path d="M6.45079 6.74875C6.45422 7.62344 7.03175 8.37865 7.88722 8.62694C8.15192 8.70364 8.17009 8.77051 7.97562 8.96571C7.68882 9.25383 7.39417 9.53507 7.1167 9.83204C6.99295 9.96479 6.89228 9.96823 6.73758 9.88858C4.69073 8.83689 4.18196 6.05254 5.76277 4.34347C6.67669 3.3557 7.62842 2.39841 8.61845 1.48684C9.65514 0.532504 10.9001 0.298959 12.2255 0.779325C13.546 1.25772 14.321 2.24107 14.5312 3.62563C14.7006 4.7437 14.3809 5.7477 13.6035 6.57224C12.9454 7.27041 12.2505 7.93467 11.5679 8.60973C11.5237 8.65349 11.4452 8.66185 11.3828 8.68644C11.3612 8.62203 11.315 8.55467 11.3224 8.4937C11.3843 7.97646 11.3327 7.46807 11.2065 6.96705C11.1677 6.81414 11.1868 6.70941 11.3052 6.59534C11.6946 6.22118 12.086 5.848 12.4504 5.44974C13.4444 4.36363 12.9184 2.6054 11.4948 2.2514C10.8166 2.08275 10.1831 2.21354 9.67626 2.70374C8.75645 3.59367 7.85579 4.50376 6.96005 5.41778C6.60499 5.78113 6.44981 6.23986 6.45079 6.74875Z" fill="#B6B6B6"/>
<path d="M10.6164 7.55578C10.6365 9.00376 10.3055 9.84551 9.62339 10.5393C8.73059 11.4469 7.84564 12.3634 6.92043 13.2371C5.8862 14.2135 4.65111 14.48 3.3124 14.0075C1.97664 13.536 1.17567 12.5556 0.960084 11.1534C0.785748 10.0201 1.11674 9.01113 1.9182 8.18168C2.56644 7.51103 3.23628 6.86006 3.90024 6.20465C3.94984 6.15549 4.0343 6.14172 4.10256 6.11173C4.11975 6.18302 4.15658 6.25628 4.15118 6.3261C4.1114 6.83596 4.13448 7.33993 4.29114 7.82964C4.33829 7.97665 4.30833 8.07597 4.19833 8.18315C3.80742 8.56518 3.41209 8.94377 3.04328 9.34695C2.08173 10.3981 2.54728 12.1062 3.90711 12.5202C4.60151 12.7316 5.26252 12.6156 5.78798 12.1146C6.7186 11.2271 7.63939 10.3259 8.51598 9.3853C9.53696 8.28985 9.01788 6.56751 7.58095 6.16532C7.35456 6.10189 7.32951 6.02716 7.49304 5.85901C7.79997 5.54384 8.11624 5.23753 8.42268 4.92237C8.52286 4.81961 8.61125 4.83485 8.72371 4.89631C9.96224 5.57383 10.5727 6.63044 10.6164 7.55578Z" fill="#B6B6B6"/>
</svg>
