<svg width="20" height="20" viewBox="0 0 20 20" fill="none" xmlns="http://www.w3.org/2000/svg">
<path d="M11.8575 14.0949C11.3693 13.85 10.8875 13.6081 10.4052 13.3667C9.25648 12.7921 8.1073 12.2186 6.9601 11.6421C6.87545 11.5992 6.82426 11.5899 6.74946 11.6731C6.1072 12.3866 5.30893 12.6034 4.40583 12.3166C3.52882 12.0382 2.98991 11.4272 2.86343 10.4974C2.72661 9.49374 3.23303 8.58957 4.14597 8.17616C5.07614 7.75487 6.08456 7.97019 6.76127 8.73689C6.81147 8.79405 6.84887 8.81327 6.92466 8.77533C8.55073 7.95935 10.1783 7.14584 11.8053 6.33184C11.8216 6.32395 11.8353 6.31114 11.8585 6.29488C11.762 5.90513 11.7576 5.51438 11.8649 5.12364C12.1508 4.08051 13.114 3.4094 14.2203 3.48479C15.2366 3.55378 16.0964 4.37911 16.2347 5.41879C16.3681 6.41757 15.8661 7.32914 14.9551 7.74403C14.0249 8.16729 13.0062 7.95196 12.3378 7.1892C12.2901 7.135 12.2556 7.10544 12.1764 7.14535C10.543 7.96625 8.90754 8.7842 7.27311 9.60264C7.26474 9.60658 7.25785 9.61348 7.23866 9.62777C7.32921 10.0018 7.34201 10.3846 7.23324 10.7714C7.27852 10.797 7.31691 10.8212 7.35776 10.8414C8.95134 11.6386 10.5454 12.4344 12.137 13.2351C12.2355 13.2849 12.2822 13.2691 12.356 13.1913C12.9998 12.5083 13.7798 12.2802 14.6815 12.5497C15.5683 12.8148 16.0733 13.4342 16.2199 14.3383C16.4252 15.6037 15.554 16.7271 14.2971 16.8957C12.8541 17.0888 11.5071 15.7791 11.8373 14.2092C11.8437 14.1767 11.8486 14.1447 11.8575 14.0949Z" fill="#B6B6B6"/>
</svg>
