<svg width="69" height="60" viewBox="0 0 69 60" fill="none" xmlns="http://www.w3.org/2000/svg">
<path d="M47.6704 32.3117L59.6559 40.8264C63.0473 43.2363 63.3735 47.5929 60.3707 50.354C57.355 53.1278 52.2294 53.1425 49.19 50.387L38.531 40.7253L35.9188 53.9054C35.1826 57.6186 30.9456 60.0322 26.6635 59.1775C22.3814 58.3227 19.825 54.5543 21.0806 50.9459L25.5366 38.1334L10.9904 42.7676C6.84136 44.0893 2.25233 42.1352 0.977366 38.5065C-0.293309 34.8926 2.24804 31.1077 6.53442 30.2308L21.6795 27.1279L9.67462 18.6003C6.29617 16.2014 5.98065 11.8595 8.98562 9.12057C11.9863 6.38528 17.0583 6.37793 20.0675 9.10587L30.7867 18.8228L33.3989 5.64264C34.1351 1.92941 38.3721 -0.484188 42.6542 0.370589C46.9363 1.22537 49.4927 4.99374 48.237 8.60219L43.7811 21.4147L58.411 16.7548C62.5192 15.4459 67.0653 17.3706 68.3446 20.9606C69.626 24.5544 67.104 28.3301 62.8348 29.2051L47.6661 32.3117H47.6704Z" fill="white"/>
<path d="M47.6704 32.3117L59.6559 40.8264C63.0473 43.2363 63.3735 47.5929 60.3707 50.354C57.355 53.1278 52.2294 53.1425 49.19 50.387L38.531 40.7253L35.9188 53.9054C35.1826 57.6186 30.9456 60.0322 26.6635 59.1775C22.3814 58.3227 19.825 54.5543 21.0806 50.9459L25.5366 38.1334L10.9904 42.7676C6.84136 44.0893 2.25233 42.1352 0.977366 38.5065C-0.293309 34.8926 2.24804 31.1077 6.53442 30.2308L21.6795 27.1279L9.67462 18.6003C6.29617 16.2014 5.98065 11.8595 8.98562 9.12057C11.9863 6.38528 17.0583 6.37793 20.0675 9.10587L30.7867 18.8228L33.3989 5.64264C34.1351 1.92941 38.3721 -0.484188 42.6542 0.370589C46.9363 1.22537 49.4927 4.99374 48.237 8.60219L43.7811 21.4147L58.411 16.7548C62.5192 15.4459 67.0653 17.3706 68.3446 20.9606C69.626 24.5544 67.104 28.3301 62.8348 29.2051L47.6661 32.3117H47.6704Z" fill="url(#paint0_linear_1047_1415)" fill-opacity="0.59"/>
<defs>
<linearGradient id="paint0_linear_1047_1415" x1="100.661" y1="-17.2856" x2="45.5879" y2="74.7824" gradientUnits="userSpaceOnUse">
<stop stop-opacity="0"/>
<stop offset="1"/>
</linearGradient>
</defs>
</svg>
