<svg width="145" height="101" viewBox="0 0 145 101" fill="none" xmlns="http://www.w3.org/2000/svg">
<g clipPath="url(#clip0_1047_1406)">
<path d="M34.4884 55.928C45.5645 51.0242 42.9835 45.1953 54.0616 40.2908C65.1384 35.3891 67.7194 41.218 78.7982 36.3156C89.8763 31.4111 87.2954 25.5822 98.3714 20.6784C109.45 15.7739 110.647 19.4553 122.488 16.9027C124.142 16.5456 125.047 15.7141 125.772 15.9076L126.602 15.5407L122.233 5.67335L121.402 6.0402C120.678 5.84673 119.771 6.67888 118.119 7.03528C106.276 9.58863 105.08 5.90654 94.0022 10.811C82.9234 15.7135 85.5051 21.5444 74.429 26.4482C63.3522 31.3499 60.7713 25.521 49.6924 30.4234C38.6143 35.3279 41.1973 41.1561 30.1192 46.0606C19.0432 50.9644 16.4615 45.1334 5.38338 50.0379C4.53326 50.4139 3.77446 50.7949 3.07268 51.1814L7.61152 60.9553C8.265 60.6017 8.97203 60.2502 9.75256 59.9053C20.8286 55.0015 23.4103 60.8325 34.4871 55.9308L34.4884 55.928Z" fill="white" fill-opacity="0.8"/>
<path d="M34.4884 55.928C45.5645 51.0242 42.9835 45.1953 54.0616 40.2908C65.1384 35.3891 67.7194 41.218 78.7982 36.3156C89.8763 31.4111 87.2954 25.5822 98.3714 20.6784C109.45 15.7739 110.647 19.4553 122.488 16.9027C124.142 16.5456 125.047 15.7141 125.772 15.9076L126.602 15.5407L122.233 5.67335L121.402 6.0402C120.678 5.84673 119.771 6.67888 118.119 7.03528C106.276 9.58863 105.08 5.90654 94.0022 10.811C82.9234 15.7135 85.5051 21.5444 74.429 26.4482C63.3522 31.3499 60.7713 25.521 49.6924 30.4234C38.6143 35.3279 41.1973 41.1561 30.1192 46.0606C19.0432 50.9644 16.4615 45.1334 5.38338 50.0379C4.53326 50.4139 3.77446 50.7949 3.07268 51.1814L7.61152 60.9553C8.265 60.6017 8.97203 60.2502 9.75256 59.9053C20.8286 55.0015 23.4103 60.8325 34.4871 55.9308L34.4884 55.928Z" fill="url(#paint0_linear_1047_1406)" fill-opacity="0.59"/>
<path d="M42.159 73.2509C53.2358 68.3492 50.6541 62.5182 61.7322 57.6137C72.809 52.712 75.39 58.5409 86.4688 53.6385C97.5469 48.734 94.9639 42.9058 106.042 38.0013C117.12 33.0968 118.316 36.7789 130.159 34.2256C131.813 33.8685 132.718 33.037 133.442 33.2305L134.273 32.8636L129.903 22.9963L129.073 23.3631C128.349 23.1696 127.443 24.0011 125.79 24.3582C113.947 26.9115 112.749 23.2302 101.673 28.1339C90.5947 33.0384 93.1756 38.8673 82.0996 43.7711C71.0235 48.6749 68.4419 42.8439 57.3631 47.7463C46.287 52.6501 48.868 58.479 37.7899 63.3835C26.7138 68.2873 24.1321 62.4563 13.0533 67.3587C12.3246 67.6811 11.6598 68.0087 11.0417 68.3385L15.582 78.1165C16.1511 77.8176 16.7621 77.5201 17.4232 77.2282C28.4993 72.3244 31.0809 78.1554 42.1577 73.2537L42.159 73.2509Z" fill="white" fill-opacity="0.8"/>
<path d="M42.159 73.2509C53.2358 68.3492 50.6541 62.5182 61.7322 57.6137C72.809 52.712 75.39 58.5409 86.4688 53.6385C97.5469 48.734 94.9639 42.9058 106.042 38.0013C117.12 33.0968 118.316 36.7789 130.159 34.2256C131.813 33.8685 132.718 33.037 133.442 33.2305L134.273 32.8636L129.903 22.9963L129.073 23.3631C128.349 23.1696 127.443 24.0011 125.79 24.3582C113.947 26.9115 112.749 23.2302 101.673 28.1339C90.5947 33.0384 93.1756 38.8673 82.0996 43.7711C71.0235 48.6749 68.4419 42.8439 57.3631 47.7463C46.287 52.6501 48.868 58.479 37.7899 63.3835C26.7138 68.2873 24.1321 62.4563 13.0533 67.3587C12.3246 67.6811 11.6598 68.0087 11.0417 68.3385L15.582 78.1165C16.1511 77.8176 16.7621 77.5201 17.4232 77.2282C28.4993 72.3244 31.0809 78.1554 42.1577 73.2537L42.159 73.2509Z" fill="url(#paint1_linear_1047_1406)" fill-opacity="0.59"/>
<path d="M137.539 40.2415L136.709 40.6083C135.984 40.4149 135.077 41.247 133.425 41.6034C121.582 44.1568 120.387 40.4747 109.308 45.3792C98.2303 50.2836 100.813 56.1119 89.7352 61.0164C78.6592 65.9201 76.0775 60.0891 64.9994 64.9936C53.9206 69.8961 56.5043 75.7263 45.4262 80.6308C34.3501 85.5346 31.7684 79.7036 20.6896 84.6061C20.0762 84.8768 19.5102 85.1517 18.9772 85.4289L23.5182 95.209C24.0022 94.9626 24.5096 94.7173 25.0588 94.4734C36.1348 89.5697 38.7165 95.4006 49.7953 90.4982C60.8714 85.5944 58.2905 79.7655 69.3686 74.861C80.4446 69.9572 83.0263 75.7882 94.1051 70.8858C105.183 65.9813 102.602 60.1524 113.678 55.2486C124.756 50.3441 125.954 54.0255 137.795 51.4729C139.449 51.1157 140.354 50.2843 141.079 50.4778L141.909 50.1109L137.54 40.2435L137.539 40.2415Z" fill="white" fill-opacity="0.8"/>
<path d="M137.539 40.2415L136.709 40.6083C135.984 40.4149 135.077 41.247 133.425 41.6034C121.582 44.1568 120.387 40.4747 109.308 45.3792C98.2303 50.2836 100.813 56.1119 89.7352 61.0164C78.6592 65.9201 76.0775 60.0891 64.9994 64.9936C53.9206 69.8961 56.5043 75.7263 45.4262 80.6308C34.3501 85.5346 31.7684 79.7036 20.6896 84.6061C20.0762 84.8768 19.5102 85.1517 18.9772 85.4289L23.5182 95.209C24.0022 94.9626 24.5096 94.7173 25.0588 94.4734C36.1348 89.5697 38.7165 95.4006 49.7953 90.4982C60.8714 85.5944 58.2905 79.7655 69.3686 74.861C80.4446 69.9572 83.0263 75.7882 94.1051 70.8858C105.183 65.9813 102.602 60.1524 113.678 55.2486C124.756 50.3441 125.954 54.0255 137.795 51.4729C139.449 51.1157 140.354 50.2843 141.079 50.4778L141.909 50.1109L137.54 40.2435L137.539 40.2415Z" fill="url(#paint2_linear_1047_1406)" fill-opacity="0.59"/>
</g>
<defs>
<linearGradient id="paint0_linear_1047_1406" x1="20.0865" y1="38.473" x2="41.6575" y2="75.0306" gradientUnits="userSpaceOnUse">
<stop stop-opacity="0"/>
<stop offset="1"/>
</linearGradient>
<linearGradient id="paint1_linear_1047_1406" x1="28.0247" y1="55.7028" x2="49.612" y2="92.2458" gradientUnits="userSpaceOnUse">
<stop stop-opacity="0"/>
<stop offset="1"/>
</linearGradient>
<linearGradient id="paint2_linear_1047_1406" x1="35.9261" y1="72.8556" x2="57.5297" y2="109.384" gradientUnits="userSpaceOnUse">
<stop stop-opacity="0"/>
<stop offset="1"/>
</linearGradient>
<clipPath id="clip0_1047_1406">
<rect width="131.48" height="61.0068" fill="white" transform="translate(0.313477 43.2266) rotate(-19.1779)"/>
</clipPath>
</defs>
</svg>
