<?xml version="1.0" encoding="UTF-8"?>
<svg id="Layer_2" data-name="Layer 2" xmlns="http://www.w3.org/2000/svg" xmlns:xlink="http://www.w3.org/1999/xlink" viewBox="0 0 773.78 343.25">
  <defs>
    <style>
      .cls-1 {
        filter: url(#drop-shadow-1);
      }

      .cls-2 {
        fill: #fff;
        stroke-width: 0px;
      }
    </style>
    <filter id="drop-shadow-1" filterUnits="userSpaceOnUse">
      <feOffset dx="-2.83" dy="2.83"/>
      <feGaussianBlur result="blur" stdDeviation="2.83"/>
      <feFlood flood-color="#000" flood-opacity=".64"/>
      <feComposite in2="blur" operator="in"/>
      <feComposite in="SourceGraphic"/>
    </filter>
  </defs>
  <g id="Pink">
    <g class="cls-1">
      <path class="cls-2" d="m394.4,202.65c-3.7-8.08-9.82-14.37-17.56-18.24-1.27-.63-2.59-1.17-3.93-1.67l23.61-51.38c3.99-8.69.75-17.84-7.23-20.42-7.99-2.59-17.7,2.36-21.7,11.06l-25.85,60.31-8.2,1.44v-97.04c0-8.93-7.24-14.9-16.17-13.32-8.93,1.57-16.17,10.09-16.17,19.02v177.9c0,8.93,7.24,14.9,16.17,13.32,8.93-1.57,16.17-10.09,16.17-19.02v-48.52l16.17-2.85c2.28-.4,4.36-.32,6.29.15,2.88.71,5.39,2.34,7.13,4.62,1.75,2.29,2.74,5.14,2.75,8.55v32.35c0,8.93,7.24,14.89,16.17,13.32,8.93-1.57,16.17-10.09,16.17-19.02v-32.35c0-6.66-1.35-12.84-3.82-18.22"/>
      <path class="cls-2" d="m275.44,160.78c-3.7-8.08-9.82-14.37-17.56-18.24-7.73-3.87-17.14-5.28-27.14-3.51-6.65,1.17-13.08,3.67-18.89,7.15-8.73,5.23-16.1,12.67-21.33,21.32-5.23,8.65-8.3,18.61-8.3,28.61v64.69c0,2.28-.45,4.44-1.27,6.51-1.21,3.1-3.28,5.96-5.88,8.17-2.6,2.21-5.63,3.74-9.03,4.35-2.28.4-4.36.31-6.29-.16-2.88-.71-5.38-2.34-7.13-4.62-1.75-2.29-2.74-5.14-2.75-8.55v-97.03c0-8.93-7.24-14.9-16.17-13.32-8.93,1.58-16.17,10.09-16.17,19.02h0v97.04c0,6.65,1.36,12.84,3.82,18.22,3.7,8.08,9.82,14.37,17.56,18.24,7.73,3.87,17.14,5.28,27.14,3.51,6.65-1.17,13.08-3.66,18.89-7.15,8.73-5.24,16.1-12.67,21.33-21.32,5.23-8.65,8.3-18.61,8.29-28.6v-64.69c0-2.28.45-4.45,1.27-6.51,1.22-3.1,3.29-5.96,5.88-8.17,2.6-2.21,5.63-3.74,9.03-4.34,2.28-.4,4.36-.32,6.29.15,2.88.71,5.39,2.34,7.13,4.62,1.75,2.29,2.74,5.14,2.75,8.55v97.03c0,8.93,7.24,14.9,16.17,13.32,8.93-1.57,16.17-10.09,16.17-19.02v-97.03c0-6.66-1.36-12.84-3.82-18.22"/>
      <path class="cls-2" d="m133.71,141.18c9.6-1.69,17.39-10.85,17.39-20.45s-7.78-16.01-17.39-14.32c-9.6,1.69-17.39,10.85-17.39,20.45s7.79,16.01,17.39,14.32"/>
      <path class="cls-2" d="m543.37,97.07v127.06c0,8.77-7.11,17.14-15.88,18.68-8.77,1.55-15.88-4.31-15.88-13.08v-127.06c0-8.77,7.11-17.14,15.88-18.68,8.77-1.55,15.88,4.31,15.88,13.08m-15.88-61.92c-9.43,1.66-17.08,10.66-17.08,20.09s7.64,15.72,17.08,14.06c9.43-1.66,17.07-10.65,17.07-20.08s-7.64-15.73-17.07-14.06"/>
      <path class="cls-2" d="m773.78,176.83v-95.29c0-6.53-1.33-12.61-3.75-17.89-3.63-7.93-9.65-14.11-17.25-17.91-7.58-3.8-16.84-5.18-26.65-3.45l-15.88,2.8V13.33c0-8.77-7.11-14.63-15.88-13.08-8.77,1.55-15.88,9.91-15.88,18.68v174.7c0,8.77,7.11,14.63,15.88,13.08,8.77-1.55,15.88-9.91,15.88-18.68v-111.17l15.88-2.8c2.24-.39,4.29-.31,6.18.15,2.83.69,5.29,2.29,7,4.54,1.72,2.25,2.7,5.05,2.71,8.39v95.29c0,8.77,7.11,14.63,15.88,13.08,8.77-1.55,15.88-9.91,15.88-18.68"/>
      <path class="cls-2" d="m472.46,146.91l-15.88,2.8c0-2.24.44-4.36,1.24-6.4,1.2-3.04,3.23-5.86,5.78-8.02,2.55-2.17,5.52-3.67,8.87-4.27,8.77-1.55,15.88-9.91,15.88-18.68s-7.11-14.63-15.88-13.08c-6.54,1.15-12.84,3.6-18.55,7.02-8.57,5.14-15.81,12.44-20.95,20.94-5.14,8.49-8.15,18.28-8.15,28.09v111.17c0,2.24-.44,4.37-1.24,6.4-1.2,3.04-3.23,5.86-5.77,8.02-2.56,2.16-5.53,3.67-8.87,4.27v31.76c6.53-1.15,12.84-3.6,18.55-7.02,8.57-5.14,15.82-12.44,20.95-20.94,5.14-8.49,8.15-18.28,8.15-28.09v-79.41l15.88-2.8c8.77-1.55,15.88-9.91,15.88-18.68s-7.11-14.63-15.88-13.08"/>
      <path class="cls-2" d="m601.39,100.84c2.56-2.17,5.53-3.67,8.87-4.27,2.24-.39,4.29-.31,6.18.15,2.83.7,5.28,2.3,7,4.54,1.71,2.25,2.69,5.05,2.7,8.39,0,8.77,7.11,14.63,15.88,13.08,8.77-1.55,15.88-9.91,15.88-18.68h0c0-6.53-1.33-12.61-3.75-17.89-3.63-7.93-9.65-14.11-17.25-17.91-7.59-3.8-16.84-5.18-26.65-3.45-6.53,1.15-12.84,3.6-18.55,7.02-8.57,5.14-15.82,12.44-20.95,20.94-5.13,8.49-8.15,18.28-8.14,28.09,0,6.53,1.33,12.61,3.75,17.89,3.63,7.93,9.65,14.11,17.24,17.91,7.59,3.8,16.84,5.19,26.65,3.45.02,0,.04-.01.07-.02,2.21-.38,4.24-.3,6.11.16,2.83.7,5.28,2.3,7,4.54,1.71,2.25,2.69,5.05,2.7,8.39,0,2.24-.44,4.36-1.24,6.4-1.19,3.04-3.23,5.85-5.77,8.02-2.56,2.16-5.53,3.67-8.87,4.27-2.24.39-4.29.31-6.17-.15-2.83-.69-5.29-2.29-7-4.54-1.72-2.25-2.7-5.05-2.71-8.39,0-8.77-7.11-14.63-15.88-13.08-8.77,1.55-15.88,9.91-15.88,18.68,0,6.54,1.33,12.61,3.75,17.89,3.63,7.93,9.65,14.11,17.24,17.91,7.59,3.8,16.84,5.19,26.65,3.45,6.53-1.15,12.84-3.6,18.55-7.02,8.57-5.14,15.82-12.44,20.95-20.94,5.14-8.49,8.15-18.28,8.14-28.09,0-6.53-1.33-12.61-3.75-17.89-3.63-7.93-9.65-14.11-17.25-17.91-7.59-3.8-16.84-5.18-26.65-3.45-.02,0-.04.01-.06.01-2.21.38-4.24.3-6.12-.16-2.83-.7-5.29-2.3-7-4.54-1.72-2.25-2.7-5.05-2.7-8.39,0-2.24.44-4.37,1.24-6.4,1.19-3.04,3.23-5.86,5.77-8.02"/>
      <path class="cls-2" d="m74.3,134.38c-7.58-3.8-16.84-5.18-26.65-3.45l-31.77,5.6c-4.18.74-8.27,3.15-11.23,6.63-2.96,3.48-4.65,7.87-4.65,12.05v174.7c0,8.77,7.11,14.63,15.88,13.08,8.77-1.55,15.88-9.91,15.88-18.68v-31.76l15.88-2.8c6.53-1.15,12.84-3.6,18.55-7.02,8.57-5.14,15.81-12.44,20.95-20.94,5.14-8.49,8.16-18.28,8.15-28.09v-63.52c0-6.53-1.33-12.61-3.75-17.89-3.63-7.93-9.65-14.11-17.24-17.91m-10.77,104.92c0,2.24-.44,4.36-1.24,6.4-1.19,3.04-3.23,5.86-5.77,8.02-2.56,2.16-5.53,3.67-8.87,4.27l-15.88,2.8v-95.29l15.88-2.8c2.24-.39,4.29-.31,6.18.15,2.83.69,5.28,2.3,7,4.54,1.72,2.25,2.7,5.05,2.71,8.39v63.52Z"/>
    </g>
  </g>
</svg>