<?xml version="1.0" encoding="UTF-8"?>
<svg id="Layer_2" data-name="Layer 2" xmlns="http://www.w3.org/2000/svg" xmlns:xlink="http://www.w3.org/1999/xlink" viewBox="0 0 534.9 205.61">
  <defs>
    <style>
      .cls-1 {
        fill: url(#linear-gradient);
      }

      .cls-1, .cls-2, .cls-3, .cls-4, .cls-5, .cls-6, .cls-7, .cls-8 {
        stroke-width: 0px;
      }

      .cls-2 {
        fill: url(#linear-gradient-4);
      }

      .cls-3 {
        fill: url(#linear-gradient-2);
      }

      .cls-4 {
        fill: url(#linear-gradient-3);
      }

      .cls-5 {
        fill: url(#linear-gradient-7);
      }

      .cls-6 {
        fill: url(#linear-gradient-5);
      }

      .cls-7 {
        fill: url(#linear-gradient-6);
      }

      .cls-8 {
        fill: #ff0086;
      }

      .cls-9 {
        filter: url(#outer-glow-1);
      }
    </style>
    <filter id="outer-glow-1" filterUnits="userSpaceOnUse">
      <feOffset dx="0" dy="0"/>
      <feGaussianBlur result="blur" stdDeviation="4"/>
      <feFlood flood-color="#ff0098" flood-opacity=".5"/>
      <feComposite in2="blur" operator="in"/>
      <feComposite in="SourceGraphic"/>
    </filter>
    <linearGradient id="linear-gradient" x1="-4.33" y1="52.34" x2="111.72" y2="-2.72" gradientUnits="userSpaceOnUse">
      <stop offset="0" stop-color="#e6e6e6"/>
      <stop offset="1" stop-color="#666"/>
    </linearGradient>
    <linearGradient id="linear-gradient-2" x1="1.35" y1="64.3" x2="117.39" y2="9.24" xlink:href="#linear-gradient"/>
    <linearGradient id="linear-gradient-3" x1="7" y1="76.21" x2="123.04" y2="21.15" xlink:href="#linear-gradient"/>
    <linearGradient id="linear-gradient-4" x1="-6.07" y1="128.5" x2="70.17" y2="103.94" xlink:href="#linear-gradient"/>
    <linearGradient id="linear-gradient-5" x1="478.46" y1="56.18" x2="536.06" y2="15.52" xlink:href="#linear-gradient"/>
    <linearGradient id="linear-gradient-6" x1="448.73" y1="183.65" x2="496.06" y2="183.65" xlink:href="#linear-gradient"/>
    <linearGradient id="linear-gradient-7" x1="433.43" y1="168.25" x2="463.47" y2="168.25" xlink:href="#linear-gradient"/>
  </defs>
  <g id="Layer_1-2" data-name="Layer 1">
    <g>
      <g class="cls-9">
        <path class="cls-8" d="m216.84,119.37c0,7.29,0,14.58,0,21.87,0,4.12-2.69,7.67-6.59,8.77-3.97,1.12-7.32-1.07-7.84-5.16-.11-.84-.12-1.69-.13-2.54-.19-14-.36-28-.56-42-.07-5.06-4.24-7.81-8.97-5.96-3.46,1.35-5.92,4.8-5.89,8.53.1,9.66.15,19.33.45,28.98.39,12.14-9.64,24.62-21.75,26.68-7.09,1.21-13.33-.35-18.1-6.08-2.54-3.05-3.89-6.66-3.96-10.6-.26-15.03-.45-30.06-.62-45.08-.05-4.59,2.93-8.25,7.19-9.03,4.01-.73,7.18,1.87,7.24,5.98.13,10.38.25,20.75.38,31.13.05,4.16.12,8.32.17,12.48.06,5.46,4.61,8.38,9.52,6,3.4-1.65,5.37-4.42,5.35-8.3-.06-9.57,0-19.15-.34-28.71-.44-12.49,9.38-24.64,21.69-26.99,10.07-1.92,19.94,3.44,21.89,14.7.23,1.32.31,2.67.31,4.01.03,7.11.01,14.22.01,21.33.18,0,.37,0,.55,0Z"/>
        <path class="cls-8" d="m132.88,108.54c0,4.69-.03,9.39,0,14.08.11,12.91-9.36,24.31-22.06,26.54-1.71.3-3.4.79-5.12.97-1.29.13-1.47.75-1.45,1.85.11,4.29.09,8.59.24,12.87.15,4.27-3.9,9.11-8.9,8.74-2.8-.21-5.17-2.43-5.21-5.27-.11-7.91-.2-15.82-.31-23.74-.09-7.24-.2-14.48-.29-21.72-.08-6.48-.16-12.96-.25-19.44-.07-5.14-.18-10.28-.22-15.42-.04-3.97,2.68-7.62,6.55-8.41,5.72-1.17,11.45-2.31,17.23-3.11,9.08-1.25,17.69,5.19,18.94,14.26.59,4.27.43,8.65.57,12.98.05,1.61,0,3.22,0,4.83h.25Zm-28.7,27.58c2.8-.56,5.4-.96,7.93-1.62,3.79-.99,6.48-4.51,6.45-8.41-.06-9.75-.16-19.5-.33-29.25-.07-3.94-3.45-6.56-7.33-5.84-1.31.24-2.63.5-3.94.74-3.4.62-3.39.62-3.35,4.07.15,12.57.28,25.14.43,37.71,0,.8.08,1.59.13,2.61Z"/>
        <path class="cls-8" d="m241.07,99.13c1.19-.22,2.31-.32,3.34-.67.42-.15.75-.82.96-1.32,3.59-8.66,7.15-17.33,10.73-25.99,1.2-2.91,3.24-4.93,6.35-5.63,4.91-1.1,8.72,2.81,7.31,7.66-.77,2.64-2.05,5.13-3.15,7.66-2.36,5.4-4.76,10.78-7.14,16.17-.18.4-.34.82-.55,1.33.4.19.75.36,1.1.52,6.52,3.04,10.02,8.24,10.45,15.32.34,5.53.3,11.09.28,16.63-.01,5.03-5.35,9.32-9.96,8.17-2.6-.65-4.33-2.7-4.39-5.39-.12-4.87-.3-9.75-.22-14.62.07-4.6-3.61-7.53-7.65-6.64-2.09.46-4.2.8-6.31,1.17-.72.13-1.04.43-1.03,1.24.12,6.66.13,13.33.29,19.99.09,3.93-1.3,7.01-4.73,8.97-4.94,2.83-9.77-.01-9.83-5.69-.21-18.38-.43-36.77-.66-55.15-.11-8.32-.28-16.64-.38-24.95-.05-4.04,2.52-7.61,6.21-8.79,4.35-1.4,7.99,1.05,8.32,5.6.05.67.03,1.34.04,2.01.18,13.69.36,27.37.54,41.06,0,.39.05.78.08,1.32Z"/>
        <path class="cls-8" d="m411.64,33.62c2.88-.53,5.58-1.13,8.31-1.51,10.68-1.48,19.2,4.94,20.53,15.21.4,3.13.29,6.34.32,9.51.13,12.21.16,24.42.36,36.62.05,3.24-2.46,7.02-6.07,8.14-4.4,1.37-8.04-1.32-8.09-5.95-.13-10.96-.25-21.91-.39-32.87-.04-3.31-.11-6.62-.16-9.93-.06-4.3-3.04-6.9-7.27-6.26-2.03.31-4.03.78-6.05,1.08-1.04.15-1.39.56-1.37,1.64.15,8.72.24,17.44.34,26.16.09,7.74.21,15.47.27,23.21.03,4.46-3.3,8.18-7.69,8.7-3.44.41-6.33-1.95-6.42-5.44-.18-7.6-.25-15.2-.35-22.81-.18-13.68-.36-27.37-.54-41.05-.07-5.55-.18-11.09-.17-16.64,0-4.45,3.96-8.27,8.36-8.25,3.27,0,5.67,2.33,5.74,5.62.1,4.43.17,8.85.25,13.28,0,.44.04.88.07,1.53Z"/>
        <path class="cls-8" d="m345.05,69.87c0-13.52,10.24-25.25,22.44-26.86,10.4-1.38,18.72,4.8,20.43,15.15.91,5.54-1.9,10.06-6.92,11.13-3.62.77-7.04-1.71-7.06-5.4-.02-5.15-4.89-8.22-9.9-5.46-2.53,1.4-4.15,3.55-4.66,6.39-.78,4.35,2.2,8.45,8.02,7.31,8.38-1.64,16.55,2.72,19.66,10.44,1.91,4.75,1.95,9.65.32,14.43-3.29,9.67-9.79,16.09-19.86,18.44-11.96,2.8-22.43-5.8-22.07-17.97.15-5.04,5.62-9.26,10.15-7.84,2.29.72,3.78,2.64,3.97,5.03.07.84.13,1.71.37,2.51.85,2.91,3.53,4.47,6.82,4.06,4.88-.62,8.6-6.16,7.15-10.69-.92-2.89-3.71-4.61-6.69-4.07-4.33.78-8.56.63-12.54-1.4-6.66-3.41-9.46-9.15-9.64-15.21Z"/>
        <path class="cls-8" d="m276.25,159.15c0-.55,0-1.04,0-1.52-.03-2.95.06-5.91-.14-8.85-.15-2.29-.06-3.86,2.6-5,3.14-1.35,4.54-4.43,4.5-7.94-.23-16.72-.42-33.45-.73-50.17-.22-12.04,9.87-24.18,21.78-26,4.61-.7,7.91,3.65,6.3,8.39-1.07,3.14-3.23,5.17-6.5,5.96-3.77.92-6.15,3.28-7.13,7.03-.07.26-.12.52-.13.79-.02.26.02.52.04,1,2.02-.37,3.96-.76,5.92-1.07,1.18-.18,2.42-.47,3.56-.29,3.89.61,5.87,4.24,4.54,8.26-1.18,3.54-3.71,5.58-7.37,6.23-1.71.3-3.41.68-5.13.93-1.07.15-1.43.54-1.41,1.71.17,8.85.26,17.71.35,26.56.04,3.44.11,6.89,0,10.33-.31,10.32-9.92,21.57-20.03,23.55-.3.06-.61.05-1.03.09Z"/>
        <path class="cls-8" d="m336.28,87.22c.15,9.52.3,19.04.44,28.56.05,3.76-2.12,7.1-5.45,8.49-4.64,1.93-8.73-.68-8.83-5.69-.1-5.36-.09-10.73-.16-16.09-.17-13.68-.36-27.35-.52-41.03-.05-4.29,2.54-7.79,6.4-8.84,4.28-1.15,7.77,1.47,7.78,5.91.02,9.56,0,19.13,0,28.69.11,0,.23,0,.34,0Z"/>
        <path class="cls-8" d="m151.12,64.93c3.73,0,6.4,2.65,6.45,6.4.05,4.65-3.89,9.07-8.4,9.41-4.51.34-7.53-2.73-7.11-7.24.44-4.72,4.51-8.57,9.07-8.58Z"/>
        <path class="cls-8" d="m336.2,36.46c.04,4.75-4.27,9.18-8.98,9.23-3.57.03-6.15-2.5-6.33-6.22-.23-4.76,4.14-9.37,8.89-9.4,3.73-.02,6.39,2.63,6.42,6.39Z"/>
      </g>
      <g>
        <path class="cls-1" d="m82.03,10.24c-7.7,3.5-9.55-.56-17.25,2.93-7.7,3.5-5.86,7.55-13.57,11.05-7.7,3.5-9.55-.56-17.25,2.93-7.71,3.5-5.86,7.55-13.57,11.05-5.29,2.4-8.41.64-12.06.92l3.12,6.87c3.65-.28,6.77,1.48,12.06-.92,7.71-3.5,5.86-7.55,13.57-11.05,7.71-3.5,9.55.56,17.25-2.93,7.71-3.5,5.86-7.55,13.57-11.05,7.71-3.5,9.55.56,17.25-2.93,7.16-3.25,6.08-6.98,12.08-10.3l-3.23-6.8c-5.87,3.3-4.85,7.01-11.96,10.24Z"/>
        <path class="cls-3" d="m87.5,22.29c-7.71,3.5-9.55-.56-17.25,2.93-7.7,3.5-5.86,7.55-13.57,11.05-7.71,3.5-9.55-.56-17.25,2.93-7.7,3.5-5.86,7.55-13.57,11.05-5.29,2.4-8.41.64-12.06.92l3.12,6.87c3.65-.28,6.77,1.48,12.06-.92,7.7-3.5,5.86-7.55,13.57-11.05,7.7-3.5,9.55.56,17.25-2.93s5.86-7.55,13.57-11.05c7.7-3.5,9.55.56,17.25-2.93,7.24-3.29,6.05-7.07,12.29-10.42l-3.23-6.8c-6.1,3.33-4.97,7.09-12.17,10.35Z"/>
        <path class="cls-4" d="m92.94,34.3c-7.71,3.5-9.55-.56-17.25,2.93-7.7,3.5-5.86,7.55-13.57,11.05s-9.55-.56-17.25,2.93c-7.71,3.5-5.86,7.55-13.57,11.05-5.29,2.4-8.41.64-12.06.92l3.12,6.87c3.65-.28,6.77,1.48,12.06-.92,7.71-3.5,5.86-7.55,13.57-11.05,7.71-3.5,9.55.56,17.25-2.93,7.7-3.5,5.86-7.55,13.57-11.05,7.71-3.5,9.55.56,17.25-2.93,7.32-3.32,6.03-7.15,12.5-10.53l-3.24-6.81c-6.33,3.36-5.1,7.16-12.38,10.46Z"/>
      </g>
      <path class="cls-2" d="m32.75,121l8.35,6.93c2.36,1.96,2.59,5.5.5,7.75h0c-2.1,2.26-5.67,2.27-7.79.03l-7.42-7.86-1.82,10.72c-.51,3.02-3.46,4.98-6.45,4.29h0c-2.98-.69-4.76-3.76-3.89-6.69l3.1-10.42-10.13,3.77c-2.89,1.07-6.09-.51-6.97-3.47h0c-.88-2.94.89-6.02,3.87-6.73l10.55-2.52-8.36-6.93c-2.35-1.95-2.57-5.48-.48-7.71h0c2.09-2.23,5.62-2.23,7.72-.01l7.47,7.9,1.82-10.72c.51-3.02,3.46-4.98,6.45-4.29h0c2.98.69,4.76,3.76,3.89,6.69l-3.1,10.42,10.19-3.79c2.86-1.06,6.03.5,6.92,3.42h0c.89,2.92-.86,5.99-3.84,6.7l-10.56,2.53Z"/>
      <path class="cls-6" d="m534.9,33.44c-21.66,8.43-24.98,13-26.29,36.21-8.43-21.66-13-24.98-36.21-26.29,21.66-8.43,24.98-13,26.29-36.21,8.43,21.66,13,24.98,36.21,26.29Z"/>
      <g>
        <polygon class="cls-7" points="448.73 202.7 478.2 161.68 496.06 205.61 448.73 202.7"/>
        <polygon class="cls-5" points="433.43 180.35 452.13 154.32 463.47 182.19 433.43 180.35"/>
      </g>
    </g>
  </g>
</svg>