<?xml version="1.0" encoding="UTF-8"?>
<svg id="Layer_2" data-name="Layer 2" xmlns="http://www.w3.org/2000/svg" viewBox="0 0 226.9 100.26">
  <defs>
    <style>
      .cls-1 {
        fill: none;
      }

      .cls-1, .cls-2 {
        stroke-width: 0px;
      }

      .cls-2 {
        fill: #fff;
      }
    </style>
  </defs>
  <g id="Layer_1-2" data-name="Layer 1">
    <g>
      <path class="cls-1" d="m12.71,51.49c-1.01.18-2.01.44-3.02.51-1.05.07-1.38.49-1.37,1.55.04,7.76.02,15.53.03,23.29,0,.42.04.84.07,1.41,1.47-.25,2.81-.49,4.16-.72,2.56-.44,4.59-2.5,4.63-5.09.09-5.79.08-11.59,0-17.38-.03-2.51-2.05-4-4.5-3.57Z"/>
      <path class="cls-1" d="m214.47,22.24c-.57-.14-1.18-.16-1.85-.05l-4.76.84v23.8c0,1,.3,1.84.81,2.52.51.67,1.25,1.15,2.1,1.36.57.14,1.18.16,1.85.05,1-.18,1.89-.63,2.66-1.28.76-.65,1.37-1.49,1.73-2.4.24-.61.37-1.25.37-1.92v-19.04c0-1-.3-1.84-.81-2.52-.51-.67-1.25-1.15-2.1-1.36Z"/>
      <path class="cls-2" d="m74.98,53.68c-1.36-6.31-6.93-9.73-13.31-8.23-7.24,1.71-12.43,8.27-12.44,15.73,0,5.6,0,11.2,0,16.81,0,2.34-1.16,3.98-3.2,4.97-3,1.46-5.74-.29-5.74-3.62,0-6.27,0-12.55,0-18.82,0-2.25.02-4.5,0-6.75-.03-3.2-2.71-4.83-5.56-3.37-2.12,1.09-2.99,2.94-3,5.24-.01,8.32-.07,16.65.04,24.97.02,1.81.38,3.72,1.08,5.39,1.92,4.6,6.51,6.7,12.06,5.81,6.38-1.03,12.35-7.45,12.66-13.86.2-4.09.09-8.2.13-12.3.02-2.41-.01-4.81.12-7.21.14-2.45,2.67-4.7,5.12-4.73,2.2-.03,3.79,1.66,3.79,4.09,0,8.6,0,17.2,0,25.8,0,2.77,2.18,4.33,4.81,3.48,2.14-.7,3.57-2.59,3.58-4.89.02-4.54,0-9.07,0-13.61,0-4.1.01-8.21,0-12.31,0-.86,0-1.75-.17-2.59Z"/>
      <path class="cls-2" d="m15.51,43.04c-3.55.15-7.08.93-10.59,1.54C1.48,45.17,0,47.05,0,50.54c0,7.53,0,15.07,0,22.6,0,7.73,0,15.46,0,23.19,0,2.08.85,3.33,2.52,3.8,2.7.76,5.78-1.77,5.82-4.81.03-2.56.04-5.13,0-7.69-.01-.8.3-1.13,1.05-1.24,1.4-.22,2.8-.44,4.18-.74,6.46-1.44,11.76-7.75,11.87-14.35.11-6.27.11-12.54-.04-18.81-.12-5.25-4.64-9.66-9.88-9.44Zm1.7,29.4c-.04,2.58-2.07,4.64-4.63,5.09-1.34.23-2.69.47-4.16.72-.03-.56-.07-.98-.07-1.41,0-7.76.02-15.53-.03-23.29,0-1.06.32-1.48,1.37-1.55,1.01-.07,2.01-.33,3.02-.51,2.45-.44,4.47,1.06,4.5,3.57.07,5.79.08,11.59,0,17.38Z"/>
      <path class="cls-2" d="m101.95,57.75c-.41-.23-.83-.43-1.42-.74.91-2,1.77-3.89,2.64-5.78,1.28-2.79,2.6-5.57,3.82-8.38.73-1.68.35-3.46-.8-4.46-1.2-1.04-3.11-1.23-4.6-.12-.99.74-1.91,1.81-2.42,2.93-2.23,4.91-4.33,9.88-6.39,14.87-.51,1.23-1.48,1.16-2.4,1.21-.15,0-.45-1.05-.52-1.63-.09-.78-.02-1.58-.02-2.36,0-7.38,0-14.75,0-22.13,0-2.54-1.84-4.02-4.29-3.54-2.19.42-4.09,2.63-4.09,4.9-.01,16.1-.02,32.19,0,48.29,0,2.42,2.13,3.94,4.49,3.29,2.37-.65,3.88-2.56,3.9-5.01.02-3.98.02-7.97,0-11.95,0-.84.19-1.32,1.15-1.39.97-.07,1.94-.31,2.9-.49,3.14-.59,5.04.97,5.05,4.19.01,2.76-.01,5.52.01,8.28.02,2.15,1.66,3.62,3.77,3.44,2.42-.21,4.57-2.48,4.59-4.92.03-3.23.11-6.47-.03-9.7-.16-3.85-1.93-6.84-5.34-8.77Z"/>
      <path class="cls-2" d="m35.23,45.66c2.55,0,4.98-2.14,5.31-4.66.37-2.86-1.43-4.72-4.3-4.46-2.52.23-4.75,2.73-4.76,5.33,0,2.26,1.51,3.79,3.75,3.79Z"/>
      <path class="cls-2" d="m225.77,19.08c-1.09-2.38-2.89-4.23-5.17-5.37-2.27-1.14-5.05-1.55-7.99-1.03l-4.76.84V3.99c0-2.63-2.13-4.38-4.76-3.92-2.63.46-4.76,2.97-4.76,5.6v42.84c0,.67-.13,1.31-.37,1.92-.36.91-.97,1.76-1.73,2.4-.77.65-1.66,1.1-2.66,1.28h0c-.67.12-1.28.09-1.85-.05-.85-.21-1.58-.69-2.1-1.36-.51-.67-.81-1.51-.81-2.52v-28.56c0-2.63-2.13-4.38-4.76-3.92-2.63.46-4.76,2.97-4.76,5.6v28.56c0,.67-.13,1.31-.37,1.92-.36.91-.97,1.75-1.73,2.4-.77.65-1.66,1.1-2.66,1.28-.67.12-1.28.09-1.85-.05-.85-.21-1.58-.69-2.1-1.36-.51-.67-.81-1.51-.81-2.52v-28.56c0-2.63-2.13-4.38-4.76-3.92-2.63.46-4.76,2.97-4.76,5.6h0v28.56c0,1.96.4,3.78,1.12,5.36,1.09,2.38,2.89,4.23,5.17,5.37,2.27,1.14,5.05,1.55,7.99,1.03,1.96-.34,3.85-1.08,5.56-2.1,1.46-.88,2.79-1.97,3.96-3.22.48.35,1,.66,1.54.93,2.27,1.14,5.05,1.55,7.99,1.03h0c1.96-.35,3.85-1.08,5.56-2.11,1.46-.88,2.79-1.97,3.96-3.22.48.35,1,.66,1.54.93,2.27,1.14,5.05,1.55,7.99,1.03,1.96-.34,3.85-1.08,5.56-2.1,2.57-1.54,4.74-3.73,6.28-6.28,1.54-2.54,2.44-5.48,2.44-8.42v-19.04c0-1.96-.4-3.78-1.12-5.36Zm-8.4,26.08c0,.67-.13,1.31-.37,1.92-.36.91-.97,1.76-1.73,2.4-.77.65-1.66,1.1-2.66,1.28-.67.12-1.28.09-1.85-.05-.85-.21-1.58-.69-2.1-1.36-.51-.67-.81-1.51-.81-2.52v-23.8l4.76-.84c.67-.12,1.28-.09,1.85.05.85.21,1.58.69,2.1,1.36.51.67.81,1.51.81,2.52v19.04Z"/>
      <path class="cls-2" d="m150.13,9.98c-2.63.46-4.76,2.97-4.76,5.6v52.36c0,2.63,2.13,4.38,4.76,3.92,2.63-.46,4.76-2.97,4.76-5.6V13.9c0-2.63-2.13-4.38-4.76-3.92Z"/>
      <path class="cls-2" d="m122.07,42.27c.36-.91.97-1.76,1.73-2.4.77-.65,1.66-1.1,2.66-1.28.67-.12,1.28-.09,1.85.05.85.21,1.58.69,2.1,1.36.51.67.81,1.51.81,2.52,0,2.63,2.13,4.38,4.76,3.92,2.63-.46,4.76-2.97,4.76-5.6,0-1.96-.4-3.78-1.12-5.36-1.09-2.38-2.89-4.23-5.17-5.37-2.27-1.14-5.05-1.55-7.99-1.03-1.96.34-3.85,1.08-5.56,2.1-2.57,1.54-4.74,3.73-6.28,6.28-1.54,2.54-2.44,5.48-2.44,8.42v19.04c0,1.96.4,3.78,1.12,5.36,1.09,2.38,2.89,4.23,5.17,5.37,2.27,1.14,5.05,1.55,7.99,1.03,1.96-.34,3.85-1.08,5.56-2.1,2.57-1.54,4.74-3.73,6.28-6.28,1.54-2.54,2.44-5.48,2.44-8.42,0-2.63-2.13-4.38-4.76-3.92s-4.76,2.97-4.76,5.6h0c0,.67-.13,1.31-.37,1.92-.36.91-.97,1.76-1.73,2.4-.77.65-1.66,1.1-2.66,1.28-.67.12-1.28.09-1.85-.05-.85-.21-1.58-.69-2.1-1.36-.51-.67-.81-1.51-.81-2.52v-19.04c0-.67.13-1.31.37-1.92Z"/>
    </g>
  </g>
</svg>