<svg width="160" height="30" viewBox="0 0 160 30" fill="none" xmlns="http://www.w3.org/2000/svg">
<g clip-path="url(#clip0_497_863)">
<path d="M21.0601 10.3231C21.096 9.53959 21.1196 8.73274 21.1319 7.90153C21.1339 7.7838 21.1339 7.66608 21.1339 7.54936C21.1339 6.84806 21.1032 6.17315 21.0426 5.52463C20.9708 4.76954 20.8518 4.08042 20.6856 3.45828C20.5205 2.84021 20.2979 2.36219 20.025 2.02524V2.02321L20.0229 2.02219C19.6772 1.56955 19.2884 1.3554 18.8257 1.34322H18.7919C18.3467 1.34322 17.9568 1.54722 17.5968 1.99073C17.3249 2.32565 17.051 2.89704 16.7894 3.6978C16.5258 4.50262 16.2867 5.35615 16.0713 6.25637C15.8549 7.15964 15.663 8.03144 15.4958 8.87381C15.3276 9.71923 15.1942 10.3556 15.0988 10.7859V10.7879V10.7889C15.0721 10.8935 15.0393 10.9787 14.986 11.0498C14.9429 11.1056 14.8885 11.133 14.828 11.1563C14.7675 11.1787 14.6967 11.1949 14.6125 11.2071C14.4433 11.2324 14.2114 11.2446 13.9068 11.2446C13.6093 11.2446 13.1835 11.2568 12.6326 11.2802H12.6296H12.6265C12.5485 11.2802 12.4808 11.272 12.4172 11.2507C12.3546 11.2294 12.2931 11.1888 12.2572 11.1259C12.2336 11.0843 12.2233 11.0376 12.2233 10.9929L12.2254 10.9594C12.2367 10.8448 12.2428 10.7301 12.2428 10.6154V10.6103C12.2664 9.96788 12.291 9.27267 12.3146 8.52367C12.3228 8.27603 12.3259 8.0284 12.3269 7.78076C12.3269 7.28346 12.3105 6.78615 12.2787 6.28885C12.2315 5.54493 12.1413 4.82434 12.0099 4.12812C11.8797 3.43798 11.6735 2.83818 11.3924 2.32869V2.32666C11.1339 1.83951 10.8333 1.46907 10.4917 1.20925C10.1439 0.946394 9.78588 0.784009 9.41144 0.717025C9.26987 0.691653 9.12933 0.679474 8.98879 0.679474C8.75387 0.679474 8.51895 0.714996 8.283 0.785024C7.90343 0.899708 7.57926 1.07935 7.30535 1.32698C6.98221 1.62334 6.736 1.98058 6.56161 2.4038C6.38311 2.84021 6.23436 3.25835 6.11536 3.65822C5.70707 5.13085 5.38905 6.3538 5.16131 7.32608C4.93254 8.30141 4.75302 9.091 4.62068 9.6969C4.48835 10.3028 4.39192 10.7554 4.33242 11.0508C4.26984 11.3563 4.20624 11.5653 4.11493 11.7034C4.0698 11.7703 4.01235 11.8272 3.94362 11.8647C3.87488 11.9033 3.79692 11.9216 3.7169 11.9216C3.60508 11.9216 3.42658 11.9337 3.18858 11.9571H3.18653H3.18448C2.42945 12.0038 1.79444 12.1723 1.27433 12.4585C1.02094 12.5985 0.834237 12.7731 0.704979 12.9872C0.576747 13.2003 0.505963 13.4551 0.493652 13.7575C0.494678 14.1097 0.603419 14.4223 0.827056 14.7105C1.04864 14.9957 1.37076 15.2068 1.8088 15.3438H1.81086L1.81393 15.3459C2.07245 15.4392 2.28685 15.4961 2.45304 15.5174C2.63565 15.5417 2.78234 15.5661 2.89621 15.5905H2.89724C3.01521 15.6189 3.10344 15.6453 3.1773 15.7143C3.2368 15.7762 3.24706 15.8472 3.24808 15.9142C3.24808 15.9609 3.24193 16.0086 3.23167 16.0624V16.0654L3.23064 16.0685C3.06445 16.7282 2.89006 17.6416 2.71053 18.8036C2.53101 19.9647 2.41098 21.1734 2.35148 22.4289C2.33097 22.848 2.32173 23.2601 2.32173 23.663C2.32173 24.4668 2.36174 25.2381 2.44176 25.977C2.55973 27.0802 2.84492 27.9012 3.27988 28.4432L3.28091 28.4462C3.69946 28.9973 4.22778 29.3779 4.87715 29.5961C5.2639 29.726 5.64757 29.79 6.02816 29.791C6.28873 29.791 6.54827 29.7605 6.80679 29.7007C7.44282 29.5515 8.03371 29.2206 8.58563 28.6979C9.12728 28.1844 9.52018 27.4537 9.75716 26.4956C9.90078 25.9273 10.0321 25.3173 10.1521 24.6657C10.2721 24.0121 10.4045 23.2814 10.5491 22.4725C10.6938 21.6647 10.8487 20.7553 11.0179 19.7445C11.1862 18.7336 11.378 17.5746 11.5955 16.2654C11.6099 16.1273 11.6642 16.0025 11.7658 15.9193C11.8694 15.834 12.0048 15.7995 12.1566 15.7995H14.1632V15.9294C14.1632 15.9883 14.155 16.0989 14.1396 16.2796C14.1242 16.4592 14.1017 16.7028 14.0719 17.0123C14.0114 17.6304 13.9457 18.3378 13.8739 19.1345C13.8021 19.9302 13.7416 20.7259 13.6934 21.5216C13.6452 22.3172 13.6216 22.9516 13.6216 23.4225C13.6216 23.8112 13.6965 24.2242 13.8493 24.6657C14.0011 25.1062 14.2125 25.5172 14.4823 25.8998C14.748 26.2774 15.0824 26.5849 15.4886 26.8254C15.8877 27.0629 16.337 27.1817 16.8458 27.1817C17.3844 27.1817 17.8409 27.0944 18.2164 26.9259C18.599 26.7534 18.9212 26.5311 19.1858 26.2581C19.4515 25.9831 19.6587 25.6756 19.8095 25.3335C19.9614 24.9854 20.0599 24.6515 20.107 24.3318V24.3288L20.1081 24.3257C20.2024 23.8568 20.2496 23.4194 20.2496 23.0135C20.2496 22.6075 20.2548 22.0432 20.2671 21.3521C20.2794 20.6599 20.3153 19.7546 20.3758 18.6362C20.4363 17.5147 20.5625 16.0269 20.7554 14.1696C20.8026 13.7423 20.8569 13.1892 20.9175 12.5122C20.977 11.8363 21.0252 11.1066 21.0611 10.3231H21.0601Z" fill="white"/>
<path d="M30.8084 20.5922C31.2638 20.0574 31.6393 19.4556 31.943 18.7908C31.9522 18.6457 31.9573 18.5046 31.9676 18.3585C32.0404 17.2858 32.143 16.2547 32.2753 15.2642C32.4087 14.2726 32.5718 13.476 32.7677 12.8691V12.867L32.7698 12.865C32.8211 12.725 32.8826 12.5362 32.9534 12.3089C32.895 11.7142 32.7811 11.1134 32.6057 10.5085C32.4046 9.82041 32.105 9.20438 31.706 8.65737C31.309 8.11543 30.7899 7.6699 30.1446 7.3218C29.5076 6.97776 28.7074 6.80219 27.7369 6.80219C27.103 6.80219 26.4813 6.91281 25.8709 7.13303C25.2595 7.35427 24.7158 7.67193 24.2357 8.09005C23.7556 8.50717 23.3699 9.00953 23.0765 9.60221C22.7851 10.1898 22.6394 10.8414 22.6394 11.5609C22.6415 11.769 22.7072 11.9131 22.8467 12.0338C22.9954 12.1597 23.1575 12.2236 23.3463 12.2348H23.3986C23.5699 12.2358 23.7433 12.1901 23.9238 12.0907C24.1095 11.9882 24.2583 11.8136 24.3711 11.5477L24.3731 11.5437L24.3752 11.5396C24.4542 11.3823 24.5701 11.225 24.7199 11.0646C24.8707 10.9023 25.0359 10.7642 25.2144 10.6506C25.3887 10.5389 25.5714 10.4456 25.7591 10.3715C25.9489 10.2964 26.112 10.2558 26.2587 10.2558C26.6618 10.2558 27.0034 10.3441 27.2712 10.5288C27.5472 10.7206 27.7164 11.0413 27.7923 11.4615C27.7923 11.4615 27.7923 11.4645 27.7923 11.4655C27.7923 11.4655 27.7923 11.4675 27.7923 11.4686C27.8652 11.7832 27.9083 12.0988 27.9206 12.4134C27.9329 12.7239 27.939 13.0477 27.939 13.3816C27.939 13.4557 27.937 13.5196 27.9308 13.5744C27.9247 13.6292 27.9175 13.6739 27.899 13.7185C27.8867 13.7469 27.8693 13.7804 27.8272 13.8099C27.8272 13.8099 27.8272 13.8099 27.8262 13.8099C27.7954 13.8291 27.7698 13.8362 27.7431 13.8434C27.7164 13.8494 27.6877 13.8535 27.6549 13.8576C27.5902 13.8636 27.5102 13.8667 27.4117 13.8667C26.3233 13.8667 25.3857 14.089 24.5906 14.5284C23.7864 14.9729 23.1216 15.526 22.5923 16.1897C22.0598 16.8565 21.6649 17.5689 21.4053 18.327C21.1663 19.0263 21.0483 19.6657 21.0483 20.2482C21.0483 20.301 21.0483 20.3527 21.0514 20.4045V20.4096C21.0514 20.9139 21.1612 21.3676 21.3787 21.7756C21.6003 22.1896 21.8824 22.5317 22.2281 22.8057C22.5769 23.0817 22.9708 23.2938 23.415 23.444C23.8571 23.5942 24.3229 23.6693 24.8143 23.6693C25.4718 23.6693 26.1612 23.5536 26.8834 23.3192C27.6036 23.0858 28.295 22.7407 28.9587 22.284C29.6214 21.8273 30.238 21.2641 30.8084 20.5943V20.5922ZM27.4323 16.7875C27.4056 16.9681 27.3379 17.2158 27.2281 17.5415C27.1173 17.8714 26.9686 18.1951 26.7849 18.5107C26.5993 18.8284 26.3879 19.1055 26.151 19.3399C25.9048 19.5855 25.6073 19.7184 25.2831 19.7164C25.0923 19.7164 24.9312 19.6951 24.7968 19.6454C24.6635 19.5966 24.5527 19.5134 24.4911 19.3967C24.4491 19.3196 24.4306 19.2323 24.4306 19.141C24.4306 18.803 24.5865 18.4559 24.8738 18.0967C25.16 17.7394 25.5303 17.4106 25.9848 17.1062C26.4433 16.7997 26.8824 16.6383 27.302 16.6383H27.4528L27.4312 16.7865L27.4323 16.7875Z" fill="white"/>
<path d="M46.6399 12.2347C47.08 11.2198 47.2985 10.1603 47.2985 9.04904C47.2985 8.99322 47.2985 8.9374 47.2965 8.88057C47.2729 7.70941 47.001 6.66815 46.484 5.74766C45.9669 4.83124 45.214 4.1259 44.2138 3.62354C43.5787 3.30589 42.833 3.14554 41.9712 3.14554C41.4901 3.14554 40.9731 3.19527 40.4201 3.29675H40.4181H40.416C40.2509 3.3201 40.1001 3.34851 39.9605 3.38302C39.8077 3.42057 39.6425 3.43884 39.4692 3.43985C38.7962 3.48653 38.1868 3.71387 37.6277 4.12793C37.0615 4.54809 36.5475 5.06263 36.0848 5.67155C35.6222 6.2825 35.2242 6.95739 34.8918 7.69825C34.5563 8.44519 34.2629 9.16778 34.0116 9.86499C33.7603 10.5653 33.5561 11.1864 33.4012 11.7303C33.2453 12.2763 33.1191 12.6802 33.0206 12.9472C32.8319 13.5307 32.6708 14.3152 32.5385 15.2966C32.4071 16.281 32.3056 17.306 32.2327 18.3747C32.1609 19.4433 32.1127 20.4826 32.0891 21.4903C32.0655 22.4991 32.0532 23.3242 32.0532 23.9646C32.0768 25.016 32.3415 25.7954 32.8298 26.3242C33.3325 26.8671 33.8659 27.1817 34.4332 27.2832C34.5902 27.3116 34.743 27.3248 34.8918 27.3248C35.2878 27.3248 35.656 27.2274 36.0048 27.0305C36.2418 26.8965 36.4152 26.7342 36.5352 26.5403C36.6542 26.3465 36.7209 26.1202 36.7322 25.8533C36.7558 25.2819 36.7927 24.5908 36.8409 23.7819C36.8891 22.971 36.9548 22.1135 37.0399 21.2092C37.124 20.305 37.2143 19.3946 37.3107 18.4782C37.4062 17.5618 37.5026 16.7103 37.6 15.9248L37.6226 15.7391L37.7898 15.8253C38.431 16.1541 38.9788 16.351 39.4261 16.419C39.6528 16.4535 39.9 16.4708 40.1678 16.4708C40.4355 16.4708 40.7238 16.4535 41.0315 16.418C42.4288 16.2536 43.5921 15.7817 44.5328 15.0023C45.4797 14.2168 46.1814 13.2953 46.642 12.2317L46.6399 12.2347ZM42.2041 8.49695C41.9487 8.93842 41.5229 9.33726 40.9341 9.7016C40.3319 10.0741 39.5841 10.2567 38.7008 10.2567C38.6659 10.2567 38.6259 10.2466 38.5941 10.2243C38.5623 10.2019 38.5418 10.1725 38.5284 10.1451C38.5028 10.0893 38.4987 10.0375 38.4977 9.97663C38.4977 9.91675 38.5049 9.84774 38.5172 9.76756C38.5561 9.52704 38.6433 9.24592 38.7777 8.91913C38.9121 8.59235 39.0711 8.26657 39.2537 7.94181C39.4384 7.61198 39.6436 7.33492 39.8703 7.11064L39.8733 7.10759L39.8764 7.10556C40.1052 6.90462 40.3534 6.76761 40.6171 6.70266C40.8674 6.64075 41.131 6.60929 41.406 6.60929C41.6737 6.60929 41.8984 6.65597 42.0779 6.76152C42.2574 6.86605 42.3805 7.03452 42.4349 7.24054C42.4657 7.35319 42.4801 7.46888 42.4801 7.58661C42.4801 7.88194 42.3857 8.1864 42.2051 8.49796L42.2041 8.49695Z" fill="white"/>
<path d="M60.8119 12.234C61.252 11.2191 61.4705 10.1586 61.4705 9.04729C61.4705 8.99147 61.4705 8.93565 61.4684 8.87984C61.4448 7.70868 61.173 6.66742 60.6549 5.74693C60.1379 4.8305 59.3849 4.12517 58.3847 3.62281C57.7497 3.30516 57.0039 3.14481 56.1422 3.14481C55.661 3.14481 55.144 3.19453 54.5911 3.29602H54.589H54.5859C54.4208 3.31936 54.27 3.34778 54.1305 3.38229C53.9776 3.41984 53.8125 3.4381 53.6391 3.43912C52.9661 3.4858 52.3568 3.71313 51.7977 4.1272C51.2314 4.54736 50.7174 5.0619 50.2548 5.67082C49.7921 6.28177 49.3941 6.95666 49.0617 7.69751C48.7262 8.44446 48.4328 9.16704 48.1815 9.86426C47.9302 10.5645 47.726 11.1856 47.5711 11.7296C47.4152 12.2756 47.289 12.6795 47.1905 12.9464C47.0018 13.53 46.8407 14.3145 46.7084 15.2958C46.5771 16.2803 46.4755 17.3053 46.4027 18.3739C46.3309 19.4426 46.2826 20.4818 46.2591 21.4896C46.2355 22.4984 46.2231 23.3235 46.2231 23.9638C46.2467 25.0153 46.5114 25.7947 46.9997 26.3234C47.5034 26.8674 48.0358 27.181 48.6031 27.2825C48.7601 27.3109 48.9129 27.3241 49.0617 27.3241C49.4577 27.3241 49.826 27.2267 50.1748 27.0298C50.4117 26.8958 50.5851 26.7334 50.7051 26.5396C50.8241 26.3457 50.8908 26.1194 50.9021 25.8525C50.9257 25.2801 50.9626 24.59 51.0108 23.7812C51.059 22.9703 51.1247 22.1127 51.2098 21.2085C51.294 20.3042 51.3842 19.3939 51.4807 18.4775C51.5761 17.561 51.6725 16.7096 51.77 15.924L51.7925 15.7383L51.9597 15.8246C52.6009 16.1534 53.1487 16.3503 53.596 16.4183C53.8227 16.4528 54.0699 16.47 54.3377 16.47C54.6054 16.47 54.8937 16.4528 55.2015 16.4173C56.5987 16.2529 57.762 15.781 58.7027 15.0015C59.6496 14.216 60.3513 13.2945 60.8119 12.2309V12.234ZM56.3761 8.49621C56.1206 8.93768 55.6949 9.33653 55.1061 9.70087C54.5039 10.0733 53.756 10.256 52.8728 10.256C52.8379 10.256 52.7979 10.2459 52.7661 10.2235C52.7343 10.2012 52.7138 10.1718 52.7004 10.1444C52.6748 10.0885 52.6707 10.0368 52.6696 9.9759C52.6696 9.91602 52.6768 9.84701 52.6891 9.76683C52.7281 9.52631 52.8153 9.24519 52.9497 8.9184C53.0841 8.59161 53.2431 8.26584 53.4257 7.94108C53.6104 7.61125 53.8155 7.33419 54.0422 7.1099L54.0453 7.10686L54.0484 7.10483C54.2772 6.90388 54.5254 6.76688 54.7891 6.70193C55.0394 6.64002 55.303 6.60856 55.5779 6.60856C55.8457 6.60856 56.0704 6.65524 56.2499 6.76079C56.4294 6.86532 56.5525 7.03379 56.6069 7.23981C56.6377 7.35246 56.652 7.46815 56.652 7.58588C56.652 7.8812 56.5576 8.18566 56.3771 8.49723L56.3761 8.49621Z" fill="white"/>
<path d="M75.3003 10.1851C75.3844 9.64012 75.4563 9.08905 75.5158 8.53189C75.5578 8.13609 75.5794 7.74435 75.5794 7.35464C75.5794 7.20038 75.5763 7.04612 75.5691 6.89287C75.5455 6.35601 75.4634 5.88612 75.3239 5.48423C75.1865 5.08742 74.971 4.77078 74.6787 4.52417C74.3945 4.28669 74.0088 4.16287 73.501 4.16287C73.2989 4.16287 73.1132 4.22173 72.9306 4.34555C72.748 4.46936 72.5715 4.66016 72.4043 4.92301C72.0627 5.45988 71.7406 6.14085 71.4431 6.96696C71.1435 7.79611 70.8625 8.70238 70.5988 9.68579C70.3331 10.6743 70.0623 11.5978 69.7853 12.4564C69.5073 13.318 69.2098 14.0548 68.8938 14.6698C68.7328 14.9824 68.5574 15.231 68.3624 15.4137C68.1686 15.5964 67.9511 15.7141 67.7182 15.7547H67.7172C67.6761 15.7618 67.6351 15.7659 67.5951 15.7659C67.4515 15.7669 67.314 15.7141 67.2176 15.6126C67.1201 15.5122 67.0617 15.3741 67.0268 15.2087C66.9847 15.0088 66.9652 14.7774 66.9652 14.5115C66.9652 14.2903 66.9796 14.0457 67.0073 13.7777C67.0678 13.1901 67.1642 12.5447 67.2976 11.8404C67.4299 11.1371 67.5746 10.4459 67.7315 9.76597C67.8875 9.08804 68.026 8.48216 68.147 7.94732C68.266 7.41654 68.3245 7.03394 68.3245 6.81574V6.80965C68.3255 6.77718 68.3265 6.7447 68.3265 6.71222C68.3265 6.25858 68.1809 5.85669 67.8844 5.48728C67.5633 5.09249 67.1663 4.84385 66.677 4.72917C66.52 4.69365 66.3579 4.67538 66.1907 4.67538C65.8399 4.67538 65.4644 4.75556 65.0612 4.91895C64.4826 5.15338 63.9154 5.67401 63.3716 6.49403C62.8956 7.2227 62.4843 8.01836 62.1396 8.87897C61.7939 9.73857 61.5569 10.6195 61.4256 11.5258C61.3569 11.9997 61.323 12.4676 61.323 12.9303C61.323 13.3525 61.3517 13.7696 61.4082 14.1827C61.5261 15.0473 61.797 15.8511 62.2217 16.5981C62.7633 17.5287 63.4804 18.1904 64.3801 18.5953C64.9997 18.8744 65.6131 19.0124 66.2225 19.0124C66.5015 19.0124 66.7795 18.984 67.0576 18.9252C67.3899 18.8551 67.6813 18.779 67.9275 18.6968C68.1757 18.6156 68.3809 18.5395 68.544 18.4705C68.7307 18.3782 68.8938 18.2858 69.0313 18.1945L69.298 18.0189L69.2324 18.3294C69.1093 18.915 68.8867 19.4651 68.5666 19.9766C68.2947 20.417 67.9316 20.8362 67.4782 21.236C67.0114 21.647 66.3825 21.9353 65.5978 22.1048H65.5957H65.5937C65.3228 22.1535 65.0746 22.1778 64.8489 22.1778C64.6232 22.1778 64.419 22.1535 64.2364 22.1017C63.8866 22.0033 63.583 21.8592 63.3286 21.6704C63.0834 21.4887 62.8556 21.2939 62.6474 21.0879C62.4556 20.8991 62.2381 20.7611 61.9919 20.6718H61.9898L61.9878 20.6707C61.8123 20.6017 61.6492 20.5682 61.4964 20.5682C61.3558 20.5682 61.2245 20.5956 61.0973 20.6515C60.8203 20.7732 60.5946 20.962 60.4141 21.2289C60.2346 21.4968 60.1145 21.8165 60.0561 22.193C60.0294 22.3656 60.0171 22.5411 60.0171 22.7208C60.0171 22.9349 60.0356 23.1541 60.0735 23.3804C60.1658 23.8108 60.3546 24.2005 60.6418 24.5546C60.9332 24.9119 61.2881 25.2234 61.7108 25.4904C62.1314 25.7563 62.6053 25.9592 63.1347 26.0983C63.665 26.2383 64.2118 26.3083 64.7781 26.3083C66.0112 26.3083 67.0965 26.08 68.0383 25.6253C68.9851 25.1676 69.814 24.5648 70.525 23.8158C71.2369 23.0638 71.8422 22.19 72.3418 21.1893C72.8444 20.1846 73.2681 19.1383 73.6148 18.0503C73.9616 16.9604 74.2488 15.8653 74.4766 14.7632C74.7043 13.658 74.9023 12.6198 75.0705 11.6455C75.1423 11.2193 75.2203 10.7321 75.3044 10.1851H75.3003Z" fill="white"/>
<path d="M99.8801 4.4063C99.7159 3.81463 99.4656 3.3346 99.1322 2.9591C98.8091 2.5978 98.369 2.41614 97.7699 2.41411C97.3411 2.41411 96.8825 2.54807 96.3922 2.82513C95.8977 3.10524 95.4002 3.47364 94.9016 3.93134C94.401 4.39108 93.9055 4.91069 93.4161 5.48917C92.9248 6.06967 92.4518 6.66845 91.9974 7.28447C90.9428 8.72965 89.8995 10.3788 88.8685 12.2299L88.6592 12.6054L88.6233 12.1782C88.5269 11.0375 88.413 9.86122 88.2807 8.64947C88.1494 7.44381 87.9227 6.35282 87.6005 5.3755C87.2805 4.40326 86.8271 3.60557 86.2413 2.97939C85.6668 2.36641 84.881 2.05891 83.849 2.05789C82.8539 2.05789 81.9152 2.47297 81.0186 3.32343C80.1169 4.17998 79.3198 5.27401 78.6284 6.60755C77.9349 7.94312 77.3615 9.40961 76.907 11.007C76.4525 12.6054 76.1653 14.1369 76.0463 15.6023C75.9263 17.0749 75.8483 18.5587 75.8124 20.0546C75.8063 20.3022 75.8042 20.5458 75.8042 20.7853C75.8042 21.9889 75.8791 23.088 76.0278 24.0816C76.2063 25.272 76.5151 26.2372 76.9491 26.979C77.1624 27.3434 77.421 27.6103 77.7267 27.7879C78.0324 27.9655 78.3873 28.0548 78.8007 28.0558C79.3085 28.0548 79.765 27.8153 80.1959 27.3007C80.6309 26.7771 81.0217 26.1215 81.3674 25.3339C81.7131 24.5444 82.0117 23.6706 82.263 22.7125C82.5154 21.7494 82.7431 20.8472 82.9473 20.0038C83.1514 19.1595 83.3258 18.4288 83.4704 17.8107C83.5433 17.4991 83.613 17.2454 83.6807 17.0485C83.7505 16.8506 83.8131 16.7116 83.8941 16.6152L84.0665 16.4132L84.1229 16.671C84.2409 17.2119 84.4081 17.7711 84.6225 18.3486C84.8369 18.926 85.0728 19.4223 85.3324 19.8425C85.7294 20.4839 86.2136 20.8056 86.8168 20.8512C86.864 20.8543 86.9101 20.8563 86.9573 20.8563C87.5103 20.8563 88.0365 20.6138 88.5546 20.1033L88.5566 20.1013L88.5587 20.0992C88.8582 19.8252 89.126 19.47 89.3609 19.0275C89.5999 18.5779 89.8215 18.1344 90.0246 17.696C90.2278 17.2566 90.4145 16.8415 90.5817 16.4508C90.754 16.0499 90.9264 15.7586 91.1151 15.5709L91.4978 15.1923L91.3326 15.7018C90.9254 16.9582 90.5899 18.2085 90.3263 19.4528C90.0626 20.695 89.8954 21.9544 89.8236 23.2331V23.2352C89.8051 23.4808 89.7959 23.7172 89.7959 23.9436C89.7959 24.5839 89.8708 25.1462 90.0175 25.6323C90.2175 26.2981 90.4935 26.8339 90.8402 27.2449C91.189 27.659 91.5901 27.9533 92.0507 28.135C92.5165 28.3187 92.9925 28.411 93.4808 28.411C93.9557 28.411 94.3692 28.3126 94.7303 28.1187C95.0903 27.9249 95.4001 27.6336 95.6617 27.2388C96.1911 26.4351 96.6568 25.3055 97.0508 23.8502C97.4467 22.3928 97.8243 20.6483 98.1843 18.6175C98.5454 16.5807 99.0266 14.348 99.6287 11.9194C99.6995 11.6159 99.7826 11.1663 99.879 10.5737C99.9745 9.98301 100.052 9.33146 100.112 8.62105C100.154 8.11362 100.176 7.59401 100.176 7.06221C100.176 6.85112 100.172 6.63901 100.165 6.42386C100.142 5.67083 100.046 4.99797 99.8811 4.40224L99.8801 4.4063Z" fill="white"/>
<path d="M157.913 7.99339C157.296 7.21499 156.487 6.83238 155.437 6.83035C154.401 6.83035 153.526 7.10234 152.793 7.64326C152.046 8.19535 151.436 8.80935 150.964 9.48627C150.42 10.2596 149.981 11.1527 149.647 12.1645L149.356 13.0495L149.392 12.1188C149.404 11.8113 149.409 11.513 149.409 11.2237C149.409 10.9345 149.403 10.6534 149.392 10.3814V10.3763C149.392 9.90338 149.374 9.45481 149.338 9.03161C149.304 8.61348 149.225 8.32018 149.123 8.16186L149.121 8.15882V8.15679C148.947 7.84928 148.745 7.61891 148.515 7.45957C148.284 7.30024 148.025 7.21093 147.728 7.1886C147.682 7.18556 147.637 7.18353 147.592 7.18353C147.057 7.18454 146.59 7.42101 146.162 7.92641C145.891 8.26132 145.604 8.84588 145.319 9.66996C145.032 10.4991 144.768 11.382 144.528 12.3178C144.288 13.2555 144.079 14.1638 143.898 15.0407C143.719 15.9216 143.58 16.5873 143.484 17.0399C143.307 17.8447 143.219 18.5724 143.219 19.2219C143.219 19.4482 143.229 19.6654 143.251 19.8724C143.335 20.6813 143.518 21.3562 143.797 21.8961C144.078 22.4421 144.414 22.8521 144.803 23.1353C145.196 23.4214 145.599 23.5828 146.02 23.6285C146.096 23.6366 146.171 23.6407 146.246 23.6407C146.581 23.6407 146.898 23.5595 147.206 23.394C147.578 23.1931 147.877 22.8826 148.108 22.4482V22.4462C148.248 22.1945 148.464 21.7134 148.752 21.0142C149.04 20.3129 149.37 19.5041 149.744 18.5886C150.116 17.6722 150.52 16.7142 150.953 15.7135C151.387 14.7128 151.808 13.7964 152.218 12.9612C152.628 12.1249 153.015 11.4368 153.381 10.8939C153.565 10.6209 153.735 10.4128 153.898 10.2677C154.061 10.1236 154.221 10.0353 154.392 10.0343C154.447 10.0343 154.506 10.0485 154.554 10.08C154.602 10.1104 154.639 10.1551 154.665 10.2038C154.715 10.3022 154.73 10.4179 154.731 10.561C154.731 10.7203 154.709 10.9162 154.665 11.1507C154.544 11.7951 154.376 12.5989 154.159 13.563C153.944 14.5241 153.733 15.5694 153.529 16.6969C153.337 17.7564 153.242 18.7409 153.242 19.6492C153.242 19.704 153.242 19.7578 153.243 19.8116C153.254 20.7605 153.432 21.5419 153.768 22.16C153.931 22.4604 154.153 22.6796 154.439 22.8288C154.725 22.9769 155.08 23.0551 155.51 23.0551C156.204 23.0551 156.828 22.6847 157.405 21.8961C157.982 21.1035 158.446 20.1008 158.792 18.886C159.137 17.6712 159.358 16.3539 159.454 14.9341C159.48 14.5424 159.493 14.1587 159.493 13.7832C159.493 12.7988 159.403 11.8682 159.223 10.9903C158.973 9.78159 158.535 8.78398 157.913 7.99441V7.99339Z" fill="white"/>
<path d="M120.122 13.0284C119.509 13.3724 119.299 14.2087 119.334 14.8633C119.354 15.2185 119.465 15.5808 119.695 15.8589C119.953 16.1694 120.205 16.1714 120.578 16.1714C120.737 16.1714 120.832 16.3095 120.819 16.4434C120.878 16.0466 120.921 15.6498 120.938 15.257C120.944 15.1383 120.946 15.0185 120.946 14.8998C120.946 14.4106 120.904 13.9235 120.826 13.4384C120.437 11.2026 119.554 8.97195 117.931 7.34918C116.448 5.86645 114.409 4.98757 112.325 4.72472C111.867 4.66687 111.401 4.63846 110.932 4.63846C109.341 4.63846 107.724 4.96626 106.277 5.57315C104.264 6.41752 102.745 7.89619 101.786 9.83865C100.998 11.434 100.545 13.1816 100.545 14.9384C100.545 15.5442 100.599 16.1511 100.712 16.754C101.062 18.6376 101.82 20.4197 103.21 21.7634C105.171 23.6612 107.948 24.5705 110.709 24.5705C111.967 24.5705 113.222 24.3817 114.392 24.0133C116.174 23.4521 117.829 22.4301 118.98 20.9677C119.979 19.7001 120.571 18.0926 120.815 16.4759C120.806 16.5185 120.788 16.5591 120.755 16.5946C120.409 16.9641 119.818 16.759 119.475 16.486C119.054 16.1522 118.823 15.6305 118.751 15.1109C118.638 14.2909 118.948 12.6894 120.011 12.6275C120.23 12.6143 120.302 12.9269 120.121 13.0284H120.122ZM103.376 19.6707C102.383 19.4982 101.723 18.2732 101.671 17.368C101.64 16.8382 101.795 16.2425 102.111 15.8101C102.251 15.6173 102.62 15.3078 102.843 15.5118C102.882 15.4113 102.97 15.3281 103.105 15.3159C104.237 15.2164 104.738 16.7296 104.838 17.5973C104.939 18.4853 104.569 19.8788 103.377 19.6717L103.376 19.6707ZM106.997 13.684C106.991 13.7439 106.96 13.7997 106.913 13.8372C106.866 13.8748 106.804 13.8931 106.744 13.887C106.683 13.8809 106.627 13.8504 106.589 13.8027C106.551 13.756 106.532 13.6952 106.539 13.6353C106.558 13.4658 106.517 13.2862 106.429 13.14C106.339 12.9939 106.2 12.8731 106.04 12.8082C105.814 12.7178 105.533 12.7381 105.323 12.8599C105.19 12.937 105.078 13.0558 105.009 13.1918C104.939 13.3278 104.91 13.4861 104.927 13.6373C104.934 13.7023 104.914 13.7672 104.869 13.8149C104.825 13.8636 104.763 13.891 104.696 13.89C104.578 13.888 104.481 13.7987 104.47 13.683C104.445 13.4435 104.489 13.2009 104.599 12.9858C104.708 12.7706 104.88 12.591 105.089 12.4692C105.427 12.2723 105.848 12.2408 106.212 12.388C106.467 12.4905 106.681 12.6732 106.823 12.9056C106.963 13.139 107.025 13.414 106.996 13.684H106.997ZM107.222 8.43001C107.085 9.27743 106.442 10.0152 105.542 10.0741C104.714 10.1279 103.945 9.44184 104.024 8.60152C104.094 7.85458 104.688 6.88538 105.524 6.87219C105.807 6.86813 105.818 7.23855 105.586 7.32786C105.105 7.51358 104.8 7.92562 104.668 8.41276C104.518 8.96891 104.866 9.50476 105.484 9.48446C106.047 9.46518 106.458 9.0095 106.595 8.49902C106.706 8.08191 106.691 7.27813 106.085 7.28219C105.694 7.28422 105.695 6.67936 106.085 6.68241C107.016 6.69154 107.347 7.64755 107.222 8.429V8.43001ZM112.527 14.5487C112.399 14.9577 112.117 15.3108 111.744 15.528C111.332 15.7675 110.823 15.8335 110.365 15.6802C110.105 15.594 109.871 15.4417 109.689 15.2408C109.506 15.0399 109.377 14.7932 109.318 14.5294C109.302 14.4634 109.318 14.3934 109.359 14.3396C109.4 14.2858 109.464 14.2523 109.533 14.2503C109.645 14.2462 109.743 14.3223 109.767 14.4309C109.809 14.6177 109.901 14.7953 110.03 14.9374C110.16 15.0794 110.329 15.1901 110.512 15.2509C110.833 15.3575 111.213 15.3118 111.511 15.1383C111.783 14.98 111.996 14.7131 112.089 14.4147C112.105 14.3538 112.145 14.3031 112.2 14.2726C112.256 14.2422 112.32 14.2351 112.381 14.2543C112.441 14.2726 112.491 14.3152 112.519 14.3711C112.548 14.4269 112.55 14.4918 112.528 14.5507L112.527 14.5487ZM110.166 13.8098C110.163 13.7307 110.179 13.6566 110.216 13.5876C110.24 13.5165 110.28 13.4546 110.336 13.4029C110.389 13.3471 110.451 13.3075 110.523 13.2841C110.593 13.2476 110.668 13.2314 110.748 13.2344C110.852 13.2344 110.951 13.2608 111.041 13.3125C111.08 13.343 111.12 13.3724 111.159 13.4029C111.231 13.4749 111.281 13.5592 111.309 13.6566C111.316 13.7073 111.323 13.7581 111.329 13.8098C111.332 13.889 111.316 13.9631 111.279 14.0321C111.255 14.1031 111.215 14.165 111.159 14.2168C111.107 14.2726 111.044 14.3122 110.972 14.3355C110.902 14.3721 110.829 14.3883 110.749 14.3853C110.644 14.3853 110.545 14.3589 110.455 14.3071C110.416 14.2767 110.376 14.2472 110.337 14.2168C110.265 14.1447 110.215 14.0605 110.187 13.9631L110.167 13.8098H110.166ZM113.171 6.69154C112.914 6.71894 112.683 6.59107 112.438 6.52815C112.174 6.45913 111.902 6.41448 111.629 6.39824C111.11 6.3678 110.583 6.5048 110.072 6.45812C109.917 6.44391 109.796 6.24906 109.934 6.12829C110.372 5.74467 111.065 5.66855 111.629 5.66652C112.154 5.66449 113.049 5.69595 113.414 6.11002C113.62 6.34445 113.47 6.65906 113.171 6.69154ZM114.206 6.78998C114.186 6.76968 114.166 6.7504 114.149 6.72706C114.137 6.70879 114.133 6.70169 114.132 6.69966C114.084 6.63471 114.037 6.58498 114.041 6.4977C114.044 6.38911 114.129 6.31604 114.229 6.29168C114.351 6.26326 114.25 6.29473 114.31 6.27544C114.341 6.26631 114.372 6.26225 114.404 6.25921C114.555 6.21151 114.721 6.26428 114.836 6.37592C114.939 6.47639 114.966 6.63674 114.911 6.76664C114.852 6.90263 114.727 6.97875 114.58 6.98687C114.424 6.99499 114.284 6.91583 114.206 6.78998ZM114.497 13.683C114.471 13.4435 114.516 13.2009 114.625 12.9858C114.735 12.7706 114.906 12.591 115.116 12.4692C115.455 12.2723 115.875 12.2408 116.239 12.388C116.493 12.4905 116.708 12.6732 116.849 12.9056C116.99 13.139 117.051 13.414 117.023 13.684C117.017 13.7439 116.986 13.7997 116.939 13.8372C116.891 13.8758 116.83 13.8931 116.769 13.887C116.709 13.8809 116.652 13.8504 116.614 13.8027C116.577 13.756 116.559 13.6952 116.565 13.6353C116.584 13.4658 116.544 13.2862 116.454 13.14C116.366 12.9939 116.226 12.8731 116.066 12.8082C115.84 12.7178 115.559 12.7381 115.35 12.8599C115.217 12.937 115.104 13.0558 115.036 13.1918C114.967 13.3278 114.937 13.4861 114.954 13.6373C114.961 13.7023 114.94 13.7672 114.896 13.8149C114.852 13.8636 114.789 13.891 114.724 13.89C114.606 13.888 114.508 13.7987 114.498 13.683H114.497ZM117.495 19.9681C117.303 20.7181 116.54 21.2803 115.753 21.1616C114.948 21.0408 114.436 20.2847 114.612 19.5022C114.744 18.9106 115.421 18.0794 116.105 18.4234C116.151 18.2874 116.281 18.1768 116.462 18.2184C117.255 18.4011 117.691 19.1998 117.494 19.967L117.495 19.9681Z" fill="white"/>
<path d="M103.105 15.9072C102.979 15.9184 102.895 15.8616 102.851 15.7793C102.78 15.8494 102.674 15.9093 102.633 15.9529C102.376 16.226 102.281 16.6909 102.265 17.0503C102.232 17.7608 102.527 18.4511 103.102 18.8876C103.457 19.1566 103.852 19.1526 104.099 18.7445C104.29 18.4288 104.287 18.0156 104.25 17.6614C104.191 17.0939 103.871 15.8362 103.103 15.9072H103.105Z" fill="white"/>
<path d="M116.304 18.7953C116.201 18.772 116.139 18.7111 116.109 18.637C115.616 18.7628 115.235 19.0907 115.161 19.6123C115.093 20.0964 115.366 20.5267 115.875 20.5826C116.909 20.6972 117.416 19.049 116.305 18.7943L116.304 18.7953Z" fill="white"/>
<path d="M141.596 13.0289C140.984 13.373 140.774 14.2092 140.809 14.8638C140.829 15.219 140.941 15.5813 141.171 15.8594C141.428 16.1699 141.68 16.172 142.054 16.172C142.214 16.172 142.308 16.31 142.296 16.445C142.354 16.0482 142.399 15.6513 142.415 15.2586C142.42 15.1399 142.422 15.0211 142.422 14.9024C142.422 14.4132 142.38 13.9251 142.302 13.4399C141.913 11.2042 141.03 8.97351 139.407 7.35073C137.926 5.86801 135.885 4.98913 133.802 4.72628C133.343 4.66843 132.878 4.64001 132.41 4.64001C130.819 4.64001 129.201 4.96782 127.754 5.57471C125.742 6.41908 124.222 7.89775 123.263 9.84021C122.475 11.4356 122.023 13.1832 122.023 14.9399C122.023 15.5458 122.076 16.1527 122.189 16.7555C122.54 18.6391 123.297 20.4212 124.687 21.7649C126.649 23.6627 129.426 24.5721 132.186 24.5721C133.445 24.5721 134.699 24.3833 135.87 24.0149C137.652 23.4537 139.307 22.4317 140.458 20.9693C141.457 19.7007 142.05 18.0941 142.293 16.4764C142.284 16.5191 142.265 16.5607 142.232 16.5952C141.887 16.9646 141.296 16.7596 140.952 16.4866C140.531 16.1527 140.301 15.6311 140.229 15.1114C140.116 14.2914 140.426 12.69 141.489 12.6281C141.707 12.6149 141.78 12.9274 141.598 13.0289H141.596ZM124.85 19.6712C123.857 19.4987 123.198 18.2738 123.145 17.3685C123.114 16.8387 123.268 16.243 123.584 15.8107C123.725 15.6179 124.093 15.3083 124.317 15.5123C124.356 15.4118 124.443 15.3286 124.578 15.3164C125.711 15.217 126.212 16.7302 126.311 17.5979C126.413 18.4859 126.042 19.8793 124.85 19.6723V19.6712ZM128.471 13.6845C128.465 13.7444 128.435 13.8002 128.387 13.8378C128.34 13.8763 128.279 13.8936 128.218 13.8875C128.158 13.8814 128.101 13.851 128.063 13.8033C128.025 13.7566 128.007 13.6957 128.014 13.6358C128.032 13.4663 127.991 13.2867 127.903 13.1406C127.815 12.9944 127.674 12.8737 127.514 12.8087C127.289 12.7184 127.008 12.7387 126.797 12.8605C126.665 12.9376 126.552 13.0563 126.483 13.1923C126.415 13.3283 126.385 13.4866 126.401 13.6378C126.408 13.7028 126.388 13.7677 126.344 13.8154C126.3 13.8642 126.237 13.8916 126.172 13.8905C126.054 13.8885 125.956 13.7992 125.946 13.6835C125.92 13.444 125.965 13.2015 126.075 12.9863C126.185 12.7711 126.356 12.5915 126.565 12.4697C126.905 12.2728 127.325 12.2414 127.689 12.3885C127.943 12.491 128.158 12.6737 128.299 12.9061C128.441 13.1395 128.502 13.4146 128.473 13.6845H128.471ZM128.696 8.43055C128.56 9.27797 127.917 10.0158 127.017 10.0746C126.188 10.1284 125.42 9.44238 125.499 8.60206C125.568 7.85512 126.162 6.88592 126.998 6.87273C127.282 6.86867 127.293 7.2391 127.061 7.3284C126.58 7.51413 126.275 7.92616 126.143 8.4133C125.993 8.96945 126.341 9.5053 126.959 9.485C127.522 9.46572 127.934 9.01004 128.069 8.49956C128.18 8.08245 128.166 7.27867 127.56 7.28273C127.169 7.28476 127.17 6.6799 127.56 6.68295C128.49 6.69208 128.821 7.64809 128.696 8.42954V8.43055ZM134.002 14.5492C133.874 14.9582 133.592 15.3114 133.218 15.5285C132.807 15.7681 132.298 15.834 131.839 15.6808C131.58 15.5945 131.346 15.4423 131.163 15.2413C130.981 15.0404 130.851 14.7938 130.792 14.5299C130.777 14.464 130.792 14.3939 130.833 14.3401C130.874 14.2863 130.939 14.2529 131.007 14.2508C131.119 14.2468 131.218 14.3229 131.24 14.4315C131.282 14.6182 131.375 14.7958 131.504 14.9379C131.633 15.08 131.802 15.1906 131.985 15.2515C132.306 15.3581 132.687 15.3124 132.984 15.1388C133.256 14.9805 133.469 14.7136 133.563 14.4152C133.578 14.3543 133.618 14.3036 133.674 14.2732C133.729 14.2427 133.794 14.2356 133.854 14.2549C133.915 14.2732 133.964 14.3158 133.992 14.3716C134.019 14.4274 134.023 14.4924 134.001 14.5512L134.002 14.5492ZM131.64 13.8104C131.637 13.7312 131.654 13.6571 131.691 13.5881C131.714 13.5171 131.754 13.4552 131.811 13.4034C131.863 13.3476 131.926 13.308 131.997 13.2847C132.067 13.2481 132.141 13.2319 132.221 13.2349C132.326 13.2349 132.424 13.2613 132.514 13.3131C132.553 13.3435 132.593 13.373 132.632 13.4034C132.704 13.4755 132.754 13.5597 132.782 13.6571C132.789 13.7079 132.795 13.7586 132.803 13.8104C132.806 13.8895 132.789 13.9636 132.752 14.0326C132.729 14.1037 132.689 14.1656 132.632 14.2173C132.58 14.2732 132.517 14.3127 132.445 14.3361C132.375 14.3726 132.301 14.3889 132.221 14.3858C132.116 14.3858 132.018 14.3594 131.928 14.3077C131.889 14.2772 131.849 14.2478 131.81 14.2173C131.738 14.1453 131.688 14.061 131.66 13.9636L131.639 13.8104H131.64ZM134.645 6.69208C134.389 6.71948 134.158 6.59161 133.913 6.52869C133.648 6.45968 133.376 6.41502 133.103 6.39878C132.584 6.36834 132.058 6.50534 131.546 6.45866C131.391 6.44445 131.27 6.2496 131.409 6.12883C131.847 5.74521 132.539 5.66909 133.104 5.66706C133.628 5.66503 134.524 5.69649 134.889 6.11056C135.095 6.345 134.946 6.65961 134.646 6.69208H134.645ZM135.68 6.79052C135.661 6.77023 135.64 6.75094 135.624 6.7276C135.614 6.71238 135.608 6.70527 135.607 6.70223C135.559 6.63626 135.512 6.58653 135.515 6.49926C135.519 6.39066 135.603 6.31759 135.704 6.29324C135.826 6.26482 135.724 6.29628 135.785 6.277C135.816 6.26787 135.846 6.26381 135.878 6.26076C136.029 6.21306 136.195 6.26584 136.31 6.37747C136.414 6.47794 136.44 6.63829 136.385 6.7682C136.326 6.90419 136.201 6.9803 136.055 6.98842C135.899 6.99654 135.758 6.91738 135.68 6.79154V6.79052ZM135.972 13.6835C135.946 13.444 135.99 13.2015 136.1 12.9863C136.21 12.7711 136.381 12.5915 136.59 12.4697C136.929 12.2728 137.349 12.2414 137.713 12.3885C137.968 12.491 138.183 12.6737 138.324 12.9061C138.464 13.1385 138.526 13.4146 138.497 13.6845C138.491 13.7444 138.46 13.8002 138.413 13.8378C138.366 13.8763 138.304 13.8936 138.244 13.8875C138.183 13.8814 138.127 13.851 138.089 13.8033C138.051 13.7566 138.032 13.6957 138.04 13.6358C138.058 13.4663 138.018 13.2867 137.929 13.1406C137.84 12.9944 137.7 12.8737 137.54 12.8087C137.314 12.7184 137.033 12.7387 136.823 12.8605C136.691 12.9376 136.578 13.0563 136.509 13.1923C136.439 13.3283 136.411 13.4866 136.427 13.6378C136.434 13.7028 136.414 13.7677 136.37 13.8154C136.325 13.8642 136.263 13.8916 136.196 13.8905C136.078 13.8885 135.981 13.7992 135.971 13.6835H135.972ZM138.969 19.9686C138.778 20.7186 138.014 21.2808 137.227 21.1621C136.423 21.0413 135.911 20.2852 136.086 19.5028C136.219 18.9111 136.896 18.0799 137.579 18.424C137.625 18.288 137.756 18.1774 137.937 18.219C138.73 18.4016 139.165 19.2003 138.969 19.9676V19.9686Z" fill="white"/>
<path d="M124.581 15.9072C124.455 15.9184 124.371 15.8616 124.329 15.7793C124.257 15.8494 124.151 15.9093 124.11 15.9529C123.854 16.226 123.758 16.6909 123.742 17.0503C123.71 17.7608 124.005 18.4511 124.579 18.8876C124.934 19.1566 125.329 19.1526 125.576 18.7445C125.767 18.4288 125.764 18.0156 125.728 17.6614C125.67 17.0939 125.349 15.8362 124.581 15.9072Z" fill="white"/>
<path d="M137.781 18.7956C137.678 18.7722 137.616 18.7113 137.587 18.6372C137.093 18.7631 136.712 19.0909 136.639 19.6126C136.571 20.0967 136.844 20.527 137.353 20.5828C138.387 20.6975 138.893 19.0493 137.782 18.7945L137.781 18.7956Z" fill="white"/>
</g>
<defs>
<clipPath id="clip0_497_863">
<rect width="158.998" height="29.1136" fill="white" transform="translate(0.496582 0.677338)"/>
</clipPath>
</defs>
</svg>
